ISO-10303-21;
HEADER;
/* Generated by software containing ST-Developer
 * from STEP Tools, Inc. (www.steptools.com) 
 */

FILE_DESCRIPTION(
/* description */ (''),
/* implementation_level */ '2;1');

FILE_NAME(
/* name */ 'Switch_Slide v5.step',
/* time_stamp */ '2025-09-15T15:35:16-06:00',
/* author */ (''),
/* organization */ (''),
/* preprocessor_version */ 'ST-DEVELOPER v20.1',
/* originating_system */ 'Autodesk Translation Framework v14.10.0.0',
/* authorisation */ '');

FILE_SCHEMA (('AUTOMOTIVE_DESIGN { 1 0 10303 214 3 1 1 }'));
ENDSEC;

DATA;
#10=MECHANICAL_DESIGN_GEOMETRIC_PRESENTATION_REPRESENTATION('',(#13),#1645);
#11=SHAPE_REPRESENTATION_RELATIONSHIP('SRR','None',#1652,#12);
#12=ADVANCED_BREP_SHAPE_REPRESENTATION('',(#14),#1644);
#13=STYLED_ITEM('',(#1661),#14);
#14=MANIFOLD_SOLID_BREP('Switch_Slide',#1009);
#15=CONICAL_SURFACE('',#1064,0.699999999999999,0.78539816339745);
#16=CONICAL_SURFACE('',#1067,0.699999999999999,0.785398163397449);
#17=CONICAL_SURFACE('',#1070,0.699999999999999,0.78539816339745);
#18=CONICAL_SURFACE('',#1073,0.699999999999999,0.78539816339745);
#19=PLANE('',#1028);
#20=PLANE('',#1030);
#21=PLANE('',#1031);
#22=PLANE('',#1037);
#23=PLANE('',#1039);
#24=PLANE('',#1040);
#25=PLANE('',#1041);
#26=PLANE('',#1042);
#27=PLANE('',#1043);
#28=PLANE('',#1044);
#29=PLANE('',#1045);
#30=PLANE('',#1046);
#31=PLANE('',#1047);
#32=PLANE('',#1048);
#33=PLANE('',#1049);
#34=PLANE('',#1050);
#35=PLANE('',#1051);
#36=PLANE('',#1052);
#37=PLANE('',#1053);
#38=PLANE('',#1054);
#39=PLANE('',#1055);
#40=PLANE('',#1056);
#41=PLANE('',#1057);
#42=PLANE('',#1059);
#43=PLANE('',#1060);
#44=PLANE('',#1062);
#45=PLANE('',#1063);
#46=PLANE('',#1066);
#47=PLANE('',#1069);
#48=PLANE('',#1072);
#49=PLANE('',#1075);
#50=PLANE('',#1078);
#51=PLANE('',#1079);
#52=PLANE('',#1080);
#53=PLANE('',#1081);
#54=PLANE('',#1082);
#55=PLANE('',#1083);
#56=PLANE('',#1084);
#57=PLANE('',#1085);
#58=PLANE('',#1086);
#59=PLANE('',#1087);
#60=PLANE('',#1088);
#61=PLANE('',#1089);
#62=PLANE('',#1090);
#63=FACE_OUTER_BOUND('',#115,.T.);
#64=FACE_OUTER_BOUND('',#116,.T.);
#65=FACE_OUTER_BOUND('',#117,.T.);
#66=FACE_OUTER_BOUND('',#118,.T.);
#67=FACE_OUTER_BOUND('',#119,.T.);
#68=FACE_OUTER_BOUND('',#120,.T.);
#69=FACE_OUTER_BOUND('',#121,.T.);
#70=FACE_OUTER_BOUND('',#122,.T.);
#71=FACE_OUTER_BOUND('',#123,.T.);
#72=FACE_OUTER_BOUND('',#124,.T.);
#73=FACE_OUTER_BOUND('',#125,.T.);
#74=FACE_OUTER_BOUND('',#126,.T.);
#75=FACE_OUTER_BOUND('',#127,.T.);
#76=FACE_OUTER_BOUND('',#128,.T.);
#77=FACE_OUTER_BOUND('',#129,.T.);
#78=FACE_OUTER_BOUND('',#130,.T.);
#79=FACE_OUTER_BOUND('',#131,.T.);
#80=FACE_OUTER_BOUND('',#132,.T.);
#81=FACE_OUTER_BOUND('',#133,.T.);
#82=FACE_OUTER_BOUND('',#134,.T.);
#83=FACE_OUTER_BOUND('',#135,.T.);
#84=FACE_OUTER_BOUND('',#136,.T.);
#85=FACE_OUTER_BOUND('',#137,.T.);
#86=FACE_OUTER_BOUND('',#138,.T.);
#87=FACE_OUTER_BOUND('',#139,.T.);
#88=FACE_OUTER_BOUND('',#140,.T.);
#89=FACE_OUTER_BOUND('',#141,.T.);
#90=FACE_OUTER_BOUND('',#142,.T.);
#91=FACE_OUTER_BOUND('',#143,.T.);
#92=FACE_OUTER_BOUND('',#144,.T.);
#93=FACE_OUTER_BOUND('',#145,.T.);
#94=FACE_OUTER_BOUND('',#146,.T.);
#95=FACE_OUTER_BOUND('',#147,.T.);
#96=FACE_OUTER_BOUND('',#148,.T.);
#97=FACE_OUTER_BOUND('',#149,.T.);
#98=FACE_OUTER_BOUND('',#150,.T.);
#99=FACE_OUTER_BOUND('',#151,.T.);
#100=FACE_OUTER_BOUND('',#152,.T.);
#101=FACE_OUTER_BOUND('',#153,.T.);
#102=FACE_OUTER_BOUND('',#154,.T.);
#103=FACE_OUTER_BOUND('',#155,.T.);
#104=FACE_OUTER_BOUND('',#156,.T.);
#105=FACE_OUTER_BOUND('',#157,.T.);
#106=FACE_OUTER_BOUND('',#158,.T.);
#107=FACE_OUTER_BOUND('',#159,.T.);
#108=FACE_OUTER_BOUND('',#160,.T.);
#109=FACE_OUTER_BOUND('',#161,.T.);
#110=FACE_OUTER_BOUND('',#162,.T.);
#111=FACE_OUTER_BOUND('',#163,.T.);
#112=FACE_OUTER_BOUND('',#164,.T.);
#113=FACE_OUTER_BOUND('',#165,.T.);
#114=FACE_OUTER_BOUND('',#166,.T.);
#115=EDGE_LOOP('',(#669,#670,#671,#672,#673,#674));
#116=EDGE_LOOP('',(#675,#676,#677,#678,#679,#680));
#117=EDGE_LOOP('',(#681,#682,#683,#684,#685));
#118=EDGE_LOOP('',(#686,#687,#688,#689));
#119=EDGE_LOOP('',(#690,#691,#692,#693,#694,#695));
#120=EDGE_LOOP('',(#696,#697,#698,#699,#700,#701,#702,#703,#704,#705,#706,
#707,#708,#709,#710));
#121=EDGE_LOOP('',(#711,#712,#713,#714,#715));
#122=EDGE_LOOP('',(#716,#717,#718,#719));
#123=EDGE_LOOP('',(#720,#721,#722,#723));
#124=EDGE_LOOP('',(#724,#725,#726,#727,#728,#729,#730,#731,#732,#733,#734,
#735));
#125=EDGE_LOOP('',(#736,#737,#738,#739));
#126=EDGE_LOOP('',(#740,#741,#742,#743));
#127=EDGE_LOOP('',(#744,#745,#746,#747));
#128=EDGE_LOOP('',(#748,#749,#750,#751));
#129=EDGE_LOOP('',(#752,#753,#754,#755,#756,#757,#758,#759,#760,#761));
#130=EDGE_LOOP('',(#762,#763,#764,#765,#766));
#131=EDGE_LOOP('',(#767,#768,#769,#770,#771));
#132=EDGE_LOOP('',(#772,#773,#774,#775,#776,#777,#778,#779,#780,#781,#782,
#783));
#133=EDGE_LOOP('',(#784,#785,#786,#787));
#134=EDGE_LOOP('',(#788,#789,#790,#791));
#135=EDGE_LOOP('',(#792,#793,#794,#795));
#136=EDGE_LOOP('',(#796,#797,#798,#799));
#137=EDGE_LOOP('',(#800,#801,#802,#803));
#138=EDGE_LOOP('',(#804,#805,#806,#807,#808,#809,#810,#811,#812,#813,#814,
#815));
#139=EDGE_LOOP('',(#816,#817,#818,#819,#820,#821));
#140=EDGE_LOOP('',(#822,#823,#824,#825));
#141=EDGE_LOOP('',(#826,#827,#828,#829,#830,#831,#832,#833,#834,#835,#836,
#837,#838,#839,#840));
#142=EDGE_LOOP('',(#841,#842,#843,#844));
#143=EDGE_LOOP('',(#845,#846,#847,#848));
#144=EDGE_LOOP('',(#849,#850,#851,#852));
#145=EDGE_LOOP('',(#853,#854,#855,#856));
#146=EDGE_LOOP('',(#857,#858,#859,#860));
#147=EDGE_LOOP('',(#861,#862,#863,#864));
#148=EDGE_LOOP('',(#865,#866,#867,#868));
#149=EDGE_LOOP('',(#869,#870,#871,#872));
#150=EDGE_LOOP('',(#873,#874,#875,#876));
#151=EDGE_LOOP('',(#877,#878,#879,#880));
#152=EDGE_LOOP('',(#881,#882,#883,#884));
#153=EDGE_LOOP('',(#885,#886,#887,#888));
#154=EDGE_LOOP('',(#889,#890,#891,#892,#893,#894,#895,#896));
#155=EDGE_LOOP('',(#897,#898,#899,#900,#901,#902,#903,#904));
#156=EDGE_LOOP('',(#905,#906,#907,#908,#909,#910,#911,#912));
#157=EDGE_LOOP('',(#913,#914,#915,#916));
#158=EDGE_LOOP('',(#917,#918,#919,#920));
#159=EDGE_LOOP('',(#921,#922,#923,#924));
#160=EDGE_LOOP('',(#925,#926,#927,#928));
#161=EDGE_LOOP('',(#929,#930,#931,#932));
#162=EDGE_LOOP('',(#933,#934,#935,#936));
#163=EDGE_LOOP('',(#937,#938,#939,#940));
#164=EDGE_LOOP('',(#941,#942,#943,#944));
#165=EDGE_LOOP('',(#945,#946,#947,#948));
#166=EDGE_LOOP('',(#949,#950,#951,#952));
#167=CIRCLE('',#1026,0.6);
#168=CIRCLE('',#1027,0.6);
#169=CIRCLE('',#1029,0.399999999999998);
#170=CIRCLE('',#1035,0.6);
#171=CIRCLE('',#1036,0.6);
#172=CIRCLE('',#1038,0.399999999999998);
#173=CIRCLE('',#1058,0.399999999999998);
#174=CIRCLE('',#1061,0.399999999999998);
#175=CIRCLE('',#1065,1.);
#176=CIRCLE('',#1068,1.);
#177=CIRCLE('',#1071,1.);
#178=CIRCLE('',#1074,1.);
#179=LINE('',#1361,#305);
#180=LINE('',#1367,#306);
#181=LINE('',#1371,#307);
#182=LINE('',#1375,#308);
#183=LINE('',#1377,#309);
#184=LINE('',#1378,#310);
#185=LINE('',#1381,#311);
#186=LINE('',#1383,#312);
#187=LINE('',#1384,#313);
#188=LINE('',#1387,#314);
#189=LINE('',#1388,#315);
#190=LINE('',#1394,#316);
#191=LINE('',#1400,#317);
#192=LINE('',#1404,#318);
#193=LINE('',#1408,#319);
#194=LINE('',#1410,#320);
#195=LINE('',#1412,#321);
#196=LINE('',#1414,#322);
#197=LINE('',#1416,#323);
#198=LINE('',#1418,#324);
#199=LINE('',#1420,#325);
#200=LINE('',#1422,#326);
#201=LINE('',#1424,#327);
#202=LINE('',#1426,#328);
#203=LINE('',#1428,#329);
#204=LINE('',#1429,#330);
#205=LINE('',#1432,#331);
#206=LINE('',#1434,#332);
#207=LINE('',#1435,#333);
#208=LINE('',#1438,#334);
#209=LINE('',#1439,#335);
#210=LINE('',#1443,#336);
#211=LINE('',#1445,#337);
#212=LINE('',#1447,#338);
#213=LINE('',#1448,#339);
#214=LINE('',#1451,#340);
#215=LINE('',#1453,#341);
#216=LINE('',#1455,#342);
#217=LINE('',#1456,#343);
#218=LINE('',#1457,#344);
#219=LINE('',#1459,#345);
#220=LINE('',#1460,#346);
#221=LINE('',#1463,#347);
#222=LINE('',#1465,#348);
#223=LINE('',#1466,#349);
#224=LINE('',#1469,#350);
#225=LINE('',#1470,#351);
#226=LINE('',#1474,#352);
#227=LINE('',#1476,#353);
#228=LINE('',#1478,#354);
#229=LINE('',#1479,#355);
#230=LINE('',#1482,#356);
#231=LINE('',#1484,#357);
#232=LINE('',#1485,#358);
#233=LINE('',#1488,#359);
#234=LINE('',#1490,#360);
#235=LINE('',#1491,#361);
#236=LINE('',#1493,#362);
#237=LINE('',#1495,#363);
#238=LINE('',#1496,#364);
#239=LINE('',#1499,#365);
#240=LINE('',#1501,#366);
#241=LINE('',#1502,#367);
#242=LINE('',#1505,#368);
#243=LINE('',#1507,#369);
#244=LINE('',#1508,#370);
#245=LINE('',#1512,#371);
#246=LINE('',#1513,#372);
#247=LINE('',#1515,#373);
#248=LINE('',#1517,#374);
#249=LINE('',#1519,#375);
#250=LINE('',#1520,#376);
#251=LINE('',#1522,#377);
#252=LINE('',#1524,#378);
#253=LINE('',#1526,#379);
#254=LINE('',#1527,#380);
#255=LINE('',#1530,#381);
#256=LINE('',#1532,#382);
#257=LINE('',#1533,#383);
#258=LINE('',#1536,#384);
#259=LINE('',#1537,#385);
#260=LINE('',#1540,#386);
#261=LINE('',#1541,#387);
#262=LINE('',#1543,#388);
#263=LINE('',#1546,#389);
#264=LINE('',#1547,#390);
#265=LINE('',#1550,#391);
#266=LINE('',#1552,#392);
#267=LINE('',#1554,#393);
#268=LINE('',#1556,#394);
#269=LINE('',#1557,#395);
#270=LINE('',#1560,#396);
#271=LINE('',#1564,#397);
#272=LINE('',#1565,#398);
#273=LINE('',#1568,#399);
#274=LINE('',#1570,#400);
#275=LINE('',#1572,#401);
#276=LINE('',#1574,#402);
#277=LINE('',#1575,#403);
#278=LINE('',#1577,#404);
#279=LINE('',#1578,#405);
#280=LINE('',#1580,#406);
#281=LINE('',#1584,#407);
#282=LINE('',#1585,#408);
#283=LINE('',#1587,#409);
#284=LINE('',#1592,#410);
#285=LINE('',#1593,#411);
#286=LINE('',#1597,#412);
#287=LINE('',#1600,#413);
#288=LINE('',#1603,#414);
#289=LINE('',#1607,#415);
#290=LINE('',#1609,#416);
#291=LINE('',#1612,#417);
#292=LINE('',#1613,#418);
#293=LINE('',#1615,#419);
#294=LINE('',#1617,#420);
#295=LINE('',#1619,#421);
#296=LINE('',#1620,#422);
#297=LINE('',#1621,#423);
#298=LINE('',#1623,#424);
#299=LINE('',#1625,#425);
#300=LINE('',#1627,#426);
#301=LINE('',#1628,#427);
#302=LINE('',#1629,#428);
#303=LINE('',#1631,#429);
#304=LINE('',#1633,#430);
#305=VECTOR('',#1097,10.);
#306=VECTOR('',#1102,10.);
#307=VECTOR('',#1107,10.);
#308=VECTOR('',#1110,10.);
#309=VECTOR('',#1111,10.);
#310=VECTOR('',#1112,10.);
#311=VECTOR('',#1115,10.);
#312=VECTOR('',#1116,10.);
#313=VECTOR('',#1117,10.);
#314=VECTOR('',#1120,10.);
#315=VECTOR('',#1121,10.);
#316=VECTOR('',#1126,10.);
#317=VECTOR('',#1131,10.);
#318=VECTOR('',#1136,10.);
#319=VECTOR('',#1139,10.);
#320=VECTOR('',#1140,10.);
#321=VECTOR('',#1141,10.);
#322=VECTOR('',#1142,10.);
#323=VECTOR('',#1143,10.);
#324=VECTOR('',#1144,10.);
#325=VECTOR('',#1145,10.);
#326=VECTOR('',#1146,10.);
#327=VECTOR('',#1147,10.);
#328=VECTOR('',#1148,10.);
#329=VECTOR('',#1149,10.);
#330=VECTOR('',#1150,10.);
#331=VECTOR('',#1153,10.);
#332=VECTOR('',#1154,10.);
#333=VECTOR('',#1155,10.);
#334=VECTOR('',#1158,10.);
#335=VECTOR('',#1159,10.);
#336=VECTOR('',#1162,10.);
#337=VECTOR('',#1163,10.);
#338=VECTOR('',#1164,10.);
#339=VECTOR('',#1165,10.);
#340=VECTOR('',#1168,10.);
#341=VECTOR('',#1169,10.);
#342=VECTOR('',#1170,10.);
#343=VECTOR('',#1171,10.);
#344=VECTOR('',#1172,10.);
#345=VECTOR('',#1173,10.);
#346=VECTOR('',#1174,10.);
#347=VECTOR('',#1177,10.);
#348=VECTOR('',#1178,10.);
#349=VECTOR('',#1179,10.);
#350=VECTOR('',#1182,10.);
#351=VECTOR('',#1183,10.);
#352=VECTOR('',#1186,10.);
#353=VECTOR('',#1187,10.);
#354=VECTOR('',#1188,10.);
#355=VECTOR('',#1189,10.);
#356=VECTOR('',#1192,10.);
#357=VECTOR('',#1193,10.);
#358=VECTOR('',#1194,10.);
#359=VECTOR('',#1197,10.);
#360=VECTOR('',#1198,10.);
#361=VECTOR('',#1199,10.);
#362=VECTOR('',#1200,10.);
#363=VECTOR('',#1201,10.);
#364=VECTOR('',#1202,10.);
#365=VECTOR('',#1205,10.);
#366=VECTOR('',#1206,10.);
#367=VECTOR('',#1207,10.);
#368=VECTOR('',#1210,10.);
#369=VECTOR('',#1211,10.);
#370=VECTOR('',#1212,10.);
#371=VECTOR('',#1215,10.);
#372=VECTOR('',#1216,10.);
#373=VECTOR('',#1217,10.);
#374=VECTOR('',#1218,10.);
#375=VECTOR('',#1219,10.);
#376=VECTOR('',#1220,10.);
#377=VECTOR('',#1221,10.);
#378=VECTOR('',#1222,10.);
#379=VECTOR('',#1223,10.);
#380=VECTOR('',#1224,10.);
#381=VECTOR('',#1227,10.);
#382=VECTOR('',#1228,10.);
#383=VECTOR('',#1229,10.);
#384=VECTOR('',#1232,10.);
#385=VECTOR('',#1233,10.);
#386=VECTOR('',#1236,10.);
#387=VECTOR('',#1237,10.);
#388=VECTOR('',#1240,10.);
#389=VECTOR('',#1243,10.);
#390=VECTOR('',#1244,10.);
#391=VECTOR('',#1247,10.);
#392=VECTOR('',#1248,10.);
#393=VECTOR('',#1249,10.);
#394=VECTOR('',#1250,10.);
#395=VECTOR('',#1251,10.);
#396=VECTOR('',#1254,10.);
#397=VECTOR('',#1259,10.);
#398=VECTOR('',#1260,10.);
#399=VECTOR('',#1263,10.);
#400=VECTOR('',#1264,10.);
#401=VECTOR('',#1265,10.);
#402=VECTOR('',#1266,10.);
#403=VECTOR('',#1267,10.);
#404=VECTOR('',#1268,10.);
#405=VECTOR('',#1269,10.);
#406=VECTOR('',#1270,10.);
#407=VECTOR('',#1275,10.);
#408=VECTOR('',#1276,10.);
#409=VECTOR('',#1279,10.);
#410=VECTOR('',#1286,10.);
#411=VECTOR('',#1287,10.);
#412=VECTOR('',#1294,10.);
#413=VECTOR('',#1297,10.);
#414=VECTOR('',#1302,10.);
#415=VECTOR('',#1309,10.);
#416=VECTOR('',#1312,10.);
#417=VECTOR('',#1317,10.);
#418=VECTOR('',#1318,10.);
#419=VECTOR('',#1321,10.);
#420=VECTOR('',#1322,10.);
#421=VECTOR('',#1323,10.);
#422=VECTOR('',#1324,10.);
#423=VECTOR('',#1325,10.);
#424=VECTOR('',#1328,10.);
#425=VECTOR('',#1329,10.);
#426=VECTOR('',#1330,10.);
#427=VECTOR('',#1331,10.);
#428=VECTOR('',#1332,10.);
#429=VECTOR('',#1335,10.);
#430=VECTOR('',#1338,10.);
#431=ELLIPSE('',#1024,0.848528137423856,0.6);
#432=ELLIPSE('',#1025,0.848528137423857,0.6);
#433=ELLIPSE('',#1033,0.848528137423856,0.6);
#434=ELLIPSE('',#1034,0.848528137423857,0.6);
#435=VERTEX_POINT('',#1357);
#436=VERTEX_POINT('',#1358);
#437=VERTEX_POINT('',#1360);
#438=VERTEX_POINT('',#1362);
#439=VERTEX_POINT('',#1364);
#440=VERTEX_POINT('',#1366);
#441=VERTEX_POINT('',#1370);
#442=VERTEX_POINT('',#1372);
#443=VERTEX_POINT('',#1374);
#444=VERTEX_POINT('',#1376);
#445=VERTEX_POINT('',#1380);
#446=VERTEX_POINT('',#1382);
#447=VERTEX_POINT('',#1386);
#448=VERTEX_POINT('',#1390);
#449=VERTEX_POINT('',#1391);
#450=VERTEX_POINT('',#1393);
#451=VERTEX_POINT('',#1395);
#452=VERTEX_POINT('',#1397);
#453=VERTEX_POINT('',#1399);
#454=VERTEX_POINT('',#1403);
#455=VERTEX_POINT('',#1405);
#456=VERTEX_POINT('',#1407);
#457=VERTEX_POINT('',#1409);
#458=VERTEX_POINT('',#1411);
#459=VERTEX_POINT('',#1413);
#460=VERTEX_POINT('',#1415);
#461=VERTEX_POINT('',#1417);
#462=VERTEX_POINT('',#1419);
#463=VERTEX_POINT('',#1421);
#464=VERTEX_POINT('',#1423);
#465=VERTEX_POINT('',#1425);
#466=VERTEX_POINT('',#1427);
#467=VERTEX_POINT('',#1431);
#468=VERTEX_POINT('',#1433);
#469=VERTEX_POINT('',#1437);
#470=VERTEX_POINT('',#1441);
#471=VERTEX_POINT('',#1442);
#472=VERTEX_POINT('',#1444);
#473=VERTEX_POINT('',#1446);
#474=VERTEX_POINT('',#1450);
#475=VERTEX_POINT('',#1452);
#476=VERTEX_POINT('',#1454);
#477=VERTEX_POINT('',#1458);
#478=VERTEX_POINT('',#1462);
#479=VERTEX_POINT('',#1464);
#480=VERTEX_POINT('',#1468);
#481=VERTEX_POINT('',#1472);
#482=VERTEX_POINT('',#1473);
#483=VERTEX_POINT('',#1475);
#484=VERTEX_POINT('',#1477);
#485=VERTEX_POINT('',#1481);
#486=VERTEX_POINT('',#1483);
#487=VERTEX_POINT('',#1487);
#488=VERTEX_POINT('',#1489);
#489=VERTEX_POINT('',#1492);
#490=VERTEX_POINT('',#1494);
#491=VERTEX_POINT('',#1498);
#492=VERTEX_POINT('',#1500);
#493=VERTEX_POINT('',#1504);
#494=VERTEX_POINT('',#1506);
#495=VERTEX_POINT('',#1510);
#496=VERTEX_POINT('',#1511);
#497=VERTEX_POINT('',#1514);
#498=VERTEX_POINT('',#1516);
#499=VERTEX_POINT('',#1518);
#500=VERTEX_POINT('',#1521);
#501=VERTEX_POINT('',#1523);
#502=VERTEX_POINT('',#1525);
#503=VERTEX_POINT('',#1529);
#504=VERTEX_POINT('',#1531);
#505=VERTEX_POINT('',#1535);
#506=VERTEX_POINT('',#1539);
#507=VERTEX_POINT('',#1545);
#508=VERTEX_POINT('',#1549);
#509=VERTEX_POINT('',#1551);
#510=VERTEX_POINT('',#1553);
#511=VERTEX_POINT('',#1555);
#512=VERTEX_POINT('',#1559);
#513=VERTEX_POINT('',#1563);
#514=VERTEX_POINT('',#1567);
#515=VERTEX_POINT('',#1569);
#516=VERTEX_POINT('',#1571);
#517=VERTEX_POINT('',#1573);
#518=VERTEX_POINT('',#1576);
#519=VERTEX_POINT('',#1579);
#520=VERTEX_POINT('',#1583);
#521=VERTEX_POINT('',#1591);
#522=VERTEX_POINT('',#1599);
#523=VERTEX_POINT('',#1616);
#524=VERTEX_POINT('',#1618);
#525=VERTEX_POINT('',#1624);
#526=VERTEX_POINT('',#1626);
#527=EDGE_CURVE('',#435,#436,#431,.T.);
#528=EDGE_CURVE('',#436,#437,#179,.T.);
#529=EDGE_CURVE('',#437,#438,#432,.T.);
#530=EDGE_CURVE('',#438,#439,#167,.T.);
#531=EDGE_CURVE('',#439,#440,#180,.T.);
#532=EDGE_CURVE('',#440,#435,#168,.T.);
#533=EDGE_CURVE('',#441,#438,#181,.T.);
#534=EDGE_CURVE('',#442,#441,#169,.T.);
#535=EDGE_CURVE('',#443,#442,#182,.T.);
#536=EDGE_CURVE('',#443,#444,#183,.T.);
#537=EDGE_CURVE('',#439,#444,#184,.T.);
#538=EDGE_CURVE('',#445,#437,#185,.T.);
#539=EDGE_CURVE('',#445,#446,#186,.T.);
#540=EDGE_CURVE('',#441,#446,#187,.T.);
#541=EDGE_CURVE('',#436,#447,#188,.T.);
#542=EDGE_CURVE('',#447,#445,#189,.T.);
#543=EDGE_CURVE('',#448,#449,#433,.T.);
#544=EDGE_CURVE('',#449,#450,#190,.T.);
#545=EDGE_CURVE('',#450,#451,#434,.T.);
#546=EDGE_CURVE('',#451,#452,#170,.T.);
#547=EDGE_CURVE('',#452,#453,#191,.T.);
#548=EDGE_CURVE('',#453,#448,#171,.T.);
#549=EDGE_CURVE('',#454,#451,#192,.T.);
#550=EDGE_CURVE('',#455,#454,#172,.T.);
#551=EDGE_CURVE('',#456,#455,#193,.T.);
#552=EDGE_CURVE('',#456,#457,#194,.T.);
#553=EDGE_CURVE('',#458,#457,#195,.T.);
#554=EDGE_CURVE('',#458,#459,#196,.T.);
#555=EDGE_CURVE('',#460,#459,#197,.T.);
#556=EDGE_CURVE('',#461,#460,#198,.T.);
#557=EDGE_CURVE('',#462,#461,#199,.T.);
#558=EDGE_CURVE('',#462,#463,#200,.T.);
#559=EDGE_CURVE('',#463,#464,#201,.T.);
#560=EDGE_CURVE('',#464,#465,#202,.T.);
#561=EDGE_CURVE('',#466,#465,#203,.T.);
#562=EDGE_CURVE('',#452,#466,#204,.T.);
#563=EDGE_CURVE('',#467,#450,#205,.T.);
#564=EDGE_CURVE('',#467,#468,#206,.T.);
#565=EDGE_CURVE('',#454,#468,#207,.T.);
#566=EDGE_CURVE('',#449,#469,#208,.T.);
#567=EDGE_CURVE('',#469,#467,#209,.T.);
#568=EDGE_CURVE('',#470,#471,#210,.T.);
#569=EDGE_CURVE('',#470,#472,#211,.T.);
#570=EDGE_CURVE('',#473,#472,#212,.T.);
#571=EDGE_CURVE('',#473,#471,#213,.T.);
#572=EDGE_CURVE('',#444,#474,#214,.T.);
#573=EDGE_CURVE('',#474,#475,#215,.T.);
#574=EDGE_CURVE('',#475,#476,#216,.T.);
#575=EDGE_CURVE('',#476,#453,#217,.T.);
#576=EDGE_CURVE('',#466,#473,#218,.T.);
#577=EDGE_CURVE('',#472,#477,#219,.T.);
#578=EDGE_CURVE('',#477,#440,#220,.T.);
#579=EDGE_CURVE('',#460,#478,#221,.T.);
#580=EDGE_CURVE('',#478,#479,#222,.T.);
#581=EDGE_CURVE('',#479,#461,#223,.T.);
#582=EDGE_CURVE('',#459,#480,#224,.T.);
#583=EDGE_CURVE('',#480,#478,#225,.T.);
#584=EDGE_CURVE('',#481,#482,#226,.T.);
#585=EDGE_CURVE('',#482,#483,#227,.T.);
#586=EDGE_CURVE('',#483,#484,#228,.T.);
#587=EDGE_CURVE('',#484,#481,#229,.T.);
#588=EDGE_CURVE('',#482,#485,#230,.T.);
#589=EDGE_CURVE('',#485,#486,#231,.T.);
#590=EDGE_CURVE('',#486,#483,#232,.T.);
#591=EDGE_CURVE('',#487,#480,#233,.T.);
#592=EDGE_CURVE('',#488,#487,#234,.T.);
#593=EDGE_CURVE('',#488,#485,#235,.T.);
#594=EDGE_CURVE('',#489,#481,#236,.T.);
#595=EDGE_CURVE('',#489,#490,#237,.T.);
#596=EDGE_CURVE('',#490,#479,#238,.T.);
#597=EDGE_CURVE('',#435,#491,#239,.T.);
#598=EDGE_CURVE('',#491,#492,#240,.T.);
#599=EDGE_CURVE('',#492,#447,#241,.T.);
#600=EDGE_CURVE('',#448,#493,#242,.T.);
#601=EDGE_CURVE('',#493,#494,#243,.T.);
#602=EDGE_CURVE('',#494,#469,#244,.T.);
#603=EDGE_CURVE('',#495,#496,#245,.T.);
#604=EDGE_CURVE('',#457,#495,#246,.T.);
#605=EDGE_CURVE('',#497,#456,#247,.T.);
#606=EDGE_CURVE('',#498,#497,#248,.T.);
#607=EDGE_CURVE('',#499,#498,#249,.T.);
#608=EDGE_CURVE('',#476,#499,#250,.T.);
#609=EDGE_CURVE('',#500,#475,#251,.T.);
#610=EDGE_CURVE('',#501,#500,#252,.T.);
#611=EDGE_CURVE('',#502,#501,#253,.T.);
#612=EDGE_CURVE('',#496,#502,#254,.T.);
#613=EDGE_CURVE('',#496,#503,#255,.T.);
#614=EDGE_CURVE('',#502,#504,#256,.T.);
#615=EDGE_CURVE('',#504,#503,#257,.T.);
#616=EDGE_CURVE('',#501,#505,#258,.T.);
#617=EDGE_CURVE('',#505,#504,#259,.T.);
#618=EDGE_CURVE('',#500,#506,#260,.T.);
#619=EDGE_CURVE('',#506,#505,#261,.T.);
#620=EDGE_CURVE('',#474,#506,#262,.T.);
#621=EDGE_CURVE('',#495,#507,#263,.T.);
#622=EDGE_CURVE('',#503,#507,#264,.T.);
#623=EDGE_CURVE('',#508,#443,#265,.T.);
#624=EDGE_CURVE('',#509,#508,#266,.T.);
#625=EDGE_CURVE('',#510,#509,#267,.T.);
#626=EDGE_CURVE('',#511,#510,#268,.T.);
#627=EDGE_CURVE('',#507,#511,#269,.T.);
#628=EDGE_CURVE('',#512,#499,#270,.T.);
#629=EDGE_CURVE('',#493,#512,#173,.T.);
#630=EDGE_CURVE('',#498,#513,#271,.T.);
#631=EDGE_CURVE('',#512,#513,#272,.T.);
#632=EDGE_CURVE('',#477,#514,#273,.T.);
#633=EDGE_CURVE('',#514,#515,#274,.T.);
#634=EDGE_CURVE('',#515,#516,#275,.T.);
#635=EDGE_CURVE('',#516,#517,#276,.T.);
#636=EDGE_CURVE('',#517,#484,#277,.T.);
#637=EDGE_CURVE('',#518,#486,#278,.T.);
#638=EDGE_CURVE('',#511,#518,#279,.T.);
#639=EDGE_CURVE('',#519,#510,#280,.T.);
#640=EDGE_CURVE('',#491,#519,#174,.T.);
#641=EDGE_CURVE('',#520,#497,#281,.T.);
#642=EDGE_CURVE('',#513,#520,#282,.T.);
#643=EDGE_CURVE('',#455,#520,#283,.T.);
#644=EDGE_CURVE('',#513,#494,#175,.T.);
#645=EDGE_CURVE('',#442,#521,#284,.T.);
#646=EDGE_CURVE('',#521,#508,#285,.T.);
#647=EDGE_CURVE('',#446,#521,#176,.T.);
#648=EDGE_CURVE('',#468,#494,#286,.T.);
#649=EDGE_CURVE('',#519,#522,#287,.T.);
#650=EDGE_CURVE('',#522,#492,#177,.T.);
#651=EDGE_CURVE('',#509,#522,#288,.T.);
#652=EDGE_CURVE('',#468,#520,#178,.T.);
#653=EDGE_CURVE('',#446,#492,#289,.T.);
#654=EDGE_CURVE('',#522,#521,#290,.T.);
#655=EDGE_CURVE('',#488,#518,#291,.T.);
#656=EDGE_CURVE('',#458,#487,#292,.T.);
#657=EDGE_CURVE('',#471,#465,#293,.T.);
#658=EDGE_CURVE('',#464,#523,#294,.T.);
#659=EDGE_CURVE('',#523,#524,#295,.T.);
#660=EDGE_CURVE('',#515,#524,#296,.T.);
#661=EDGE_CURVE('',#514,#470,#297,.T.);
#662=EDGE_CURVE('',#517,#489,#298,.T.);
#663=EDGE_CURVE('',#516,#525,#299,.T.);
#664=EDGE_CURVE('',#525,#526,#300,.T.);
#665=EDGE_CURVE('',#463,#526,#301,.T.);
#666=EDGE_CURVE('',#490,#462,#302,.T.);
#667=EDGE_CURVE('',#526,#523,#303,.T.);
#668=EDGE_CURVE('',#524,#525,#304,.T.);
#669=ORIENTED_EDGE('',*,*,#527,.T.);
#670=ORIENTED_EDGE('',*,*,#528,.T.);
#671=ORIENTED_EDGE('',*,*,#529,.T.);
#672=ORIENTED_EDGE('',*,*,#530,.T.);
#673=ORIENTED_EDGE('',*,*,#531,.T.);
#674=ORIENTED_EDGE('',*,*,#532,.T.);
#675=ORIENTED_EDGE('',*,*,#530,.F.);
#676=ORIENTED_EDGE('',*,*,#533,.F.);
#677=ORIENTED_EDGE('',*,*,#534,.F.);
#678=ORIENTED_EDGE('',*,*,#535,.F.);
#679=ORIENTED_EDGE('',*,*,#536,.T.);
#680=ORIENTED_EDGE('',*,*,#537,.F.);
#681=ORIENTED_EDGE('',*,*,#529,.F.);
#682=ORIENTED_EDGE('',*,*,#538,.F.);
#683=ORIENTED_EDGE('',*,*,#539,.T.);
#684=ORIENTED_EDGE('',*,*,#540,.F.);
#685=ORIENTED_EDGE('',*,*,#533,.T.);
#686=ORIENTED_EDGE('',*,*,#528,.F.);
#687=ORIENTED_EDGE('',*,*,#541,.T.);
#688=ORIENTED_EDGE('',*,*,#542,.T.);
#689=ORIENTED_EDGE('',*,*,#538,.T.);
#690=ORIENTED_EDGE('',*,*,#543,.T.);
#691=ORIENTED_EDGE('',*,*,#544,.T.);
#692=ORIENTED_EDGE('',*,*,#545,.T.);
#693=ORIENTED_EDGE('',*,*,#546,.T.);
#694=ORIENTED_EDGE('',*,*,#547,.T.);
#695=ORIENTED_EDGE('',*,*,#548,.T.);
#696=ORIENTED_EDGE('',*,*,#546,.F.);
#697=ORIENTED_EDGE('',*,*,#549,.F.);
#698=ORIENTED_EDGE('',*,*,#550,.F.);
#699=ORIENTED_EDGE('',*,*,#551,.F.);
#700=ORIENTED_EDGE('',*,*,#552,.T.);
#701=ORIENTED_EDGE('',*,*,#553,.F.);
#702=ORIENTED_EDGE('',*,*,#554,.T.);
#703=ORIENTED_EDGE('',*,*,#555,.F.);
#704=ORIENTED_EDGE('',*,*,#556,.F.);
#705=ORIENTED_EDGE('',*,*,#557,.F.);
#706=ORIENTED_EDGE('',*,*,#558,.T.);
#707=ORIENTED_EDGE('',*,*,#559,.T.);
#708=ORIENTED_EDGE('',*,*,#560,.T.);
#709=ORIENTED_EDGE('',*,*,#561,.F.);
#710=ORIENTED_EDGE('',*,*,#562,.F.);
#711=ORIENTED_EDGE('',*,*,#545,.F.);
#712=ORIENTED_EDGE('',*,*,#563,.F.);
#713=ORIENTED_EDGE('',*,*,#564,.T.);
#714=ORIENTED_EDGE('',*,*,#565,.F.);
#715=ORIENTED_EDGE('',*,*,#549,.T.);
#716=ORIENTED_EDGE('',*,*,#544,.F.);
#717=ORIENTED_EDGE('',*,*,#566,.T.);
#718=ORIENTED_EDGE('',*,*,#567,.T.);
#719=ORIENTED_EDGE('',*,*,#563,.T.);
#720=ORIENTED_EDGE('',*,*,#568,.F.);
#721=ORIENTED_EDGE('',*,*,#569,.T.);
#722=ORIENTED_EDGE('',*,*,#570,.F.);
#723=ORIENTED_EDGE('',*,*,#571,.T.);
#724=ORIENTED_EDGE('',*,*,#531,.F.);
#725=ORIENTED_EDGE('',*,*,#537,.T.);
#726=ORIENTED_EDGE('',*,*,#572,.T.);
#727=ORIENTED_EDGE('',*,*,#573,.T.);
#728=ORIENTED_EDGE('',*,*,#574,.T.);
#729=ORIENTED_EDGE('',*,*,#575,.T.);
#730=ORIENTED_EDGE('',*,*,#547,.F.);
#731=ORIENTED_EDGE('',*,*,#562,.T.);
#732=ORIENTED_EDGE('',*,*,#576,.T.);
#733=ORIENTED_EDGE('',*,*,#570,.T.);
#734=ORIENTED_EDGE('',*,*,#577,.T.);
#735=ORIENTED_EDGE('',*,*,#578,.T.);
#736=ORIENTED_EDGE('',*,*,#556,.T.);
#737=ORIENTED_EDGE('',*,*,#579,.T.);
#738=ORIENTED_EDGE('',*,*,#580,.T.);
#739=ORIENTED_EDGE('',*,*,#581,.T.);
#740=ORIENTED_EDGE('',*,*,#579,.F.);
#741=ORIENTED_EDGE('',*,*,#555,.T.);
#742=ORIENTED_EDGE('',*,*,#582,.T.);
#743=ORIENTED_EDGE('',*,*,#583,.T.);
#744=ORIENTED_EDGE('',*,*,#584,.T.);
#745=ORIENTED_EDGE('',*,*,#585,.T.);
#746=ORIENTED_EDGE('',*,*,#586,.T.);
#747=ORIENTED_EDGE('',*,*,#587,.T.);
#748=ORIENTED_EDGE('',*,*,#585,.F.);
#749=ORIENTED_EDGE('',*,*,#588,.T.);
#750=ORIENTED_EDGE('',*,*,#589,.T.);
#751=ORIENTED_EDGE('',*,*,#590,.T.);
#752=ORIENTED_EDGE('',*,*,#580,.F.);
#753=ORIENTED_EDGE('',*,*,#583,.F.);
#754=ORIENTED_EDGE('',*,*,#591,.F.);
#755=ORIENTED_EDGE('',*,*,#592,.F.);
#756=ORIENTED_EDGE('',*,*,#593,.T.);
#757=ORIENTED_EDGE('',*,*,#588,.F.);
#758=ORIENTED_EDGE('',*,*,#584,.F.);
#759=ORIENTED_EDGE('',*,*,#594,.F.);
#760=ORIENTED_EDGE('',*,*,#595,.T.);
#761=ORIENTED_EDGE('',*,*,#596,.T.);
#762=ORIENTED_EDGE('',*,*,#527,.F.);
#763=ORIENTED_EDGE('',*,*,#597,.T.);
#764=ORIENTED_EDGE('',*,*,#598,.T.);
#765=ORIENTED_EDGE('',*,*,#599,.T.);
#766=ORIENTED_EDGE('',*,*,#541,.F.);
#767=ORIENTED_EDGE('',*,*,#543,.F.);
#768=ORIENTED_EDGE('',*,*,#600,.T.);
#769=ORIENTED_EDGE('',*,*,#601,.T.);
#770=ORIENTED_EDGE('',*,*,#602,.T.);
#771=ORIENTED_EDGE('',*,*,#566,.F.);
#772=ORIENTED_EDGE('',*,*,#603,.F.);
#773=ORIENTED_EDGE('',*,*,#604,.F.);
#774=ORIENTED_EDGE('',*,*,#552,.F.);
#775=ORIENTED_EDGE('',*,*,#605,.F.);
#776=ORIENTED_EDGE('',*,*,#606,.F.);
#777=ORIENTED_EDGE('',*,*,#607,.F.);
#778=ORIENTED_EDGE('',*,*,#608,.F.);
#779=ORIENTED_EDGE('',*,*,#574,.F.);
#780=ORIENTED_EDGE('',*,*,#609,.F.);
#781=ORIENTED_EDGE('',*,*,#610,.F.);
#782=ORIENTED_EDGE('',*,*,#611,.F.);
#783=ORIENTED_EDGE('',*,*,#612,.F.);
#784=ORIENTED_EDGE('',*,*,#613,.F.);
#785=ORIENTED_EDGE('',*,*,#612,.T.);
#786=ORIENTED_EDGE('',*,*,#614,.T.);
#787=ORIENTED_EDGE('',*,*,#615,.T.);
#788=ORIENTED_EDGE('',*,*,#614,.F.);
#789=ORIENTED_EDGE('',*,*,#611,.T.);
#790=ORIENTED_EDGE('',*,*,#616,.T.);
#791=ORIENTED_EDGE('',*,*,#617,.T.);
#792=ORIENTED_EDGE('',*,*,#616,.F.);
#793=ORIENTED_EDGE('',*,*,#610,.T.);
#794=ORIENTED_EDGE('',*,*,#618,.T.);
#795=ORIENTED_EDGE('',*,*,#619,.T.);
#796=ORIENTED_EDGE('',*,*,#618,.F.);
#797=ORIENTED_EDGE('',*,*,#609,.T.);
#798=ORIENTED_EDGE('',*,*,#573,.F.);
#799=ORIENTED_EDGE('',*,*,#620,.T.);
#800=ORIENTED_EDGE('',*,*,#621,.F.);
#801=ORIENTED_EDGE('',*,*,#603,.T.);
#802=ORIENTED_EDGE('',*,*,#613,.T.);
#803=ORIENTED_EDGE('',*,*,#622,.T.);
#804=ORIENTED_EDGE('',*,*,#622,.F.);
#805=ORIENTED_EDGE('',*,*,#615,.F.);
#806=ORIENTED_EDGE('',*,*,#617,.F.);
#807=ORIENTED_EDGE('',*,*,#619,.F.);
#808=ORIENTED_EDGE('',*,*,#620,.F.);
#809=ORIENTED_EDGE('',*,*,#572,.F.);
#810=ORIENTED_EDGE('',*,*,#536,.F.);
#811=ORIENTED_EDGE('',*,*,#623,.F.);
#812=ORIENTED_EDGE('',*,*,#624,.F.);
#813=ORIENTED_EDGE('',*,*,#625,.F.);
#814=ORIENTED_EDGE('',*,*,#626,.F.);
#815=ORIENTED_EDGE('',*,*,#627,.F.);
#816=ORIENTED_EDGE('',*,*,#548,.F.);
#817=ORIENTED_EDGE('',*,*,#575,.F.);
#818=ORIENTED_EDGE('',*,*,#608,.T.);
#819=ORIENTED_EDGE('',*,*,#628,.F.);
#820=ORIENTED_EDGE('',*,*,#629,.F.);
#821=ORIENTED_EDGE('',*,*,#600,.F.);
#822=ORIENTED_EDGE('',*,*,#607,.T.);
#823=ORIENTED_EDGE('',*,*,#630,.T.);
#824=ORIENTED_EDGE('',*,*,#631,.F.);
#825=ORIENTED_EDGE('',*,*,#628,.T.);
#826=ORIENTED_EDGE('',*,*,#532,.F.);
#827=ORIENTED_EDGE('',*,*,#578,.F.);
#828=ORIENTED_EDGE('',*,*,#632,.T.);
#829=ORIENTED_EDGE('',*,*,#633,.T.);
#830=ORIENTED_EDGE('',*,*,#634,.T.);
#831=ORIENTED_EDGE('',*,*,#635,.T.);
#832=ORIENTED_EDGE('',*,*,#636,.T.);
#833=ORIENTED_EDGE('',*,*,#586,.F.);
#834=ORIENTED_EDGE('',*,*,#590,.F.);
#835=ORIENTED_EDGE('',*,*,#637,.F.);
#836=ORIENTED_EDGE('',*,*,#638,.F.);
#837=ORIENTED_EDGE('',*,*,#626,.T.);
#838=ORIENTED_EDGE('',*,*,#639,.F.);
#839=ORIENTED_EDGE('',*,*,#640,.F.);
#840=ORIENTED_EDGE('',*,*,#597,.F.);
#841=ORIENTED_EDGE('',*,*,#606,.T.);
#842=ORIENTED_EDGE('',*,*,#641,.F.);
#843=ORIENTED_EDGE('',*,*,#642,.F.);
#844=ORIENTED_EDGE('',*,*,#630,.F.);
#845=ORIENTED_EDGE('',*,*,#605,.T.);
#846=ORIENTED_EDGE('',*,*,#551,.T.);
#847=ORIENTED_EDGE('',*,*,#643,.T.);
#848=ORIENTED_EDGE('',*,*,#641,.T.);
#849=ORIENTED_EDGE('',*,*,#631,.T.);
#850=ORIENTED_EDGE('',*,*,#644,.T.);
#851=ORIENTED_EDGE('',*,*,#601,.F.);
#852=ORIENTED_EDGE('',*,*,#629,.T.);
#853=ORIENTED_EDGE('',*,*,#623,.T.);
#854=ORIENTED_EDGE('',*,*,#535,.T.);
#855=ORIENTED_EDGE('',*,*,#645,.T.);
#856=ORIENTED_EDGE('',*,*,#646,.T.);
#857=ORIENTED_EDGE('',*,*,#540,.T.);
#858=ORIENTED_EDGE('',*,*,#647,.T.);
#859=ORIENTED_EDGE('',*,*,#645,.F.);
#860=ORIENTED_EDGE('',*,*,#534,.T.);
#861=ORIENTED_EDGE('',*,*,#567,.F.);
#862=ORIENTED_EDGE('',*,*,#602,.F.);
#863=ORIENTED_EDGE('',*,*,#648,.F.);
#864=ORIENTED_EDGE('',*,*,#564,.F.);
#865=ORIENTED_EDGE('',*,*,#649,.T.);
#866=ORIENTED_EDGE('',*,*,#650,.T.);
#867=ORIENTED_EDGE('',*,*,#598,.F.);
#868=ORIENTED_EDGE('',*,*,#640,.T.);
#869=ORIENTED_EDGE('',*,*,#625,.T.);
#870=ORIENTED_EDGE('',*,*,#651,.T.);
#871=ORIENTED_EDGE('',*,*,#649,.F.);
#872=ORIENTED_EDGE('',*,*,#639,.T.);
#873=ORIENTED_EDGE('',*,*,#565,.T.);
#874=ORIENTED_EDGE('',*,*,#652,.T.);
#875=ORIENTED_EDGE('',*,*,#643,.F.);
#876=ORIENTED_EDGE('',*,*,#550,.T.);
#877=ORIENTED_EDGE('',*,*,#542,.F.);
#878=ORIENTED_EDGE('',*,*,#599,.F.);
#879=ORIENTED_EDGE('',*,*,#653,.F.);
#880=ORIENTED_EDGE('',*,*,#539,.F.);
#881=ORIENTED_EDGE('',*,*,#647,.F.);
#882=ORIENTED_EDGE('',*,*,#653,.T.);
#883=ORIENTED_EDGE('',*,*,#650,.F.);
#884=ORIENTED_EDGE('',*,*,#654,.T.);
#885=ORIENTED_EDGE('',*,*,#644,.F.);
#886=ORIENTED_EDGE('',*,*,#642,.T.);
#887=ORIENTED_EDGE('',*,*,#652,.F.);
#888=ORIENTED_EDGE('',*,*,#648,.T.);
#889=ORIENTED_EDGE('',*,*,#627,.T.);
#890=ORIENTED_EDGE('',*,*,#638,.T.);
#891=ORIENTED_EDGE('',*,*,#655,.F.);
#892=ORIENTED_EDGE('',*,*,#592,.T.);
#893=ORIENTED_EDGE('',*,*,#656,.F.);
#894=ORIENTED_EDGE('',*,*,#553,.T.);
#895=ORIENTED_EDGE('',*,*,#604,.T.);
#896=ORIENTED_EDGE('',*,*,#621,.T.);
#897=ORIENTED_EDGE('',*,*,#657,.T.);
#898=ORIENTED_EDGE('',*,*,#560,.F.);
#899=ORIENTED_EDGE('',*,*,#658,.T.);
#900=ORIENTED_EDGE('',*,*,#659,.T.);
#901=ORIENTED_EDGE('',*,*,#660,.F.);
#902=ORIENTED_EDGE('',*,*,#633,.F.);
#903=ORIENTED_EDGE('',*,*,#661,.T.);
#904=ORIENTED_EDGE('',*,*,#568,.T.);
#905=ORIENTED_EDGE('',*,*,#595,.F.);
#906=ORIENTED_EDGE('',*,*,#662,.F.);
#907=ORIENTED_EDGE('',*,*,#635,.F.);
#908=ORIENTED_EDGE('',*,*,#663,.T.);
#909=ORIENTED_EDGE('',*,*,#664,.T.);
#910=ORIENTED_EDGE('',*,*,#665,.F.);
#911=ORIENTED_EDGE('',*,*,#558,.F.);
#912=ORIENTED_EDGE('',*,*,#666,.F.);
#913=ORIENTED_EDGE('',*,*,#667,.T.);
#914=ORIENTED_EDGE('',*,*,#658,.F.);
#915=ORIENTED_EDGE('',*,*,#559,.F.);
#916=ORIENTED_EDGE('',*,*,#665,.T.);
#917=ORIENTED_EDGE('',*,*,#668,.T.);
#918=ORIENTED_EDGE('',*,*,#663,.F.);
#919=ORIENTED_EDGE('',*,*,#634,.F.);
#920=ORIENTED_EDGE('',*,*,#660,.T.);
#921=ORIENTED_EDGE('',*,*,#659,.F.);
#922=ORIENTED_EDGE('',*,*,#667,.F.);
#923=ORIENTED_EDGE('',*,*,#664,.F.);
#924=ORIENTED_EDGE('',*,*,#668,.F.);
#925=ORIENTED_EDGE('',*,*,#657,.F.);
#926=ORIENTED_EDGE('',*,*,#571,.F.);
#927=ORIENTED_EDGE('',*,*,#576,.F.);
#928=ORIENTED_EDGE('',*,*,#561,.T.);
#929=ORIENTED_EDGE('',*,*,#581,.F.);
#930=ORIENTED_EDGE('',*,*,#596,.F.);
#931=ORIENTED_EDGE('',*,*,#666,.T.);
#932=ORIENTED_EDGE('',*,*,#557,.T.);
#933=ORIENTED_EDGE('',*,*,#661,.F.);
#934=ORIENTED_EDGE('',*,*,#632,.F.);
#935=ORIENTED_EDGE('',*,*,#577,.F.);
#936=ORIENTED_EDGE('',*,*,#569,.F.);
#937=ORIENTED_EDGE('',*,*,#655,.T.);
#938=ORIENTED_EDGE('',*,*,#637,.T.);
#939=ORIENTED_EDGE('',*,*,#589,.F.);
#940=ORIENTED_EDGE('',*,*,#593,.F.);
#941=ORIENTED_EDGE('',*,*,#624,.T.);
#942=ORIENTED_EDGE('',*,*,#646,.F.);
#943=ORIENTED_EDGE('',*,*,#654,.F.);
#944=ORIENTED_EDGE('',*,*,#651,.F.);
#945=ORIENTED_EDGE('',*,*,#656,.T.);
#946=ORIENTED_EDGE('',*,*,#591,.T.);
#947=ORIENTED_EDGE('',*,*,#582,.F.);
#948=ORIENTED_EDGE('',*,*,#554,.F.);
#949=ORIENTED_EDGE('',*,*,#587,.F.);
#950=ORIENTED_EDGE('',*,*,#636,.F.);
#951=ORIENTED_EDGE('',*,*,#662,.T.);
#952=ORIENTED_EDGE('',*,*,#594,.T.);
#953=CYLINDRICAL_SURFACE('',#1023,0.6);
#954=CYLINDRICAL_SURFACE('',#1032,0.6);
#955=CYLINDRICAL_SURFACE('',#1076,1.);
#956=CYLINDRICAL_SURFACE('',#1077,1.);
#957=ADVANCED_FACE('',(#63),#953,.T.);
#958=ADVANCED_FACE('',(#64),#19,.T.);
#959=ADVANCED_FACE('',(#65),#20,.T.);
#960=ADVANCED_FACE('',(#66),#21,.T.);
#961=ADVANCED_FACE('',(#67),#954,.T.);
#962=ADVANCED_FACE('',(#68),#22,.T.);
#963=ADVANCED_FACE('',(#69),#23,.T.);
#964=ADVANCED_FACE('',(#70),#24,.T.);
#965=ADVANCED_FACE('',(#71),#25,.T.);
#966=ADVANCED_FACE('',(#72),#26,.F.);
#967=ADVANCED_FACE('',(#73),#27,.T.);
#968=ADVANCED_FACE('',(#74),#28,.T.);
#969=ADVANCED_FACE('',(#75),#29,.T.);
#970=ADVANCED_FACE('',(#76),#30,.T.);
#971=ADVANCED_FACE('',(#77),#31,.T.);
#972=ADVANCED_FACE('',(#78),#32,.T.);
#973=ADVANCED_FACE('',(#79),#33,.T.);
#974=ADVANCED_FACE('',(#80),#34,.F.);
#975=ADVANCED_FACE('',(#81),#35,.F.);
#976=ADVANCED_FACE('',(#82),#36,.F.);
#977=ADVANCED_FACE('',(#83),#37,.F.);
#978=ADVANCED_FACE('',(#84),#38,.F.);
#979=ADVANCED_FACE('',(#85),#39,.F.);
#980=ADVANCED_FACE('',(#86),#40,.F.);
#981=ADVANCED_FACE('',(#87),#41,.T.);
#982=ADVANCED_FACE('',(#88),#42,.T.);
#983=ADVANCED_FACE('',(#89),#43,.T.);
#984=ADVANCED_FACE('',(#90),#44,.T.);
#985=ADVANCED_FACE('',(#91),#45,.T.);
#986=ADVANCED_FACE('',(#92),#15,.T.);
#987=ADVANCED_FACE('',(#93),#46,.T.);
#988=ADVANCED_FACE('',(#94),#16,.T.);
#989=ADVANCED_FACE('',(#95),#47,.T.);
#990=ADVANCED_FACE('',(#96),#17,.T.);
#991=ADVANCED_FACE('',(#97),#48,.T.);
#992=ADVANCED_FACE('',(#98),#18,.T.);
#993=ADVANCED_FACE('',(#99),#49,.T.);
#994=ADVANCED_FACE('',(#100),#955,.T.);
#995=ADVANCED_FACE('',(#101),#956,.T.);
#996=ADVANCED_FACE('',(#102),#50,.T.);
#997=ADVANCED_FACE('',(#103),#51,.T.);
#998=ADVANCED_FACE('',(#104),#52,.T.);
#999=ADVANCED_FACE('',(#105),#53,.T.);
#1000=ADVANCED_FACE('',(#106),#54,.T.);
#1001=ADVANCED_FACE('',(#107),#55,.T.);
#1002=ADVANCED_FACE('',(#108),#56,.T.);
#1003=ADVANCED_FACE('',(#109),#57,.T.);
#1004=ADVANCED_FACE('',(#110),#58,.T.);
#1005=ADVANCED_FACE('',(#111),#59,.T.);
#1006=ADVANCED_FACE('',(#112),#60,.T.);
#1007=ADVANCED_FACE('',(#113),#61,.T.);
#1008=ADVANCED_FACE('',(#114),#62,.T.);
#1009=CLOSED_SHELL('',(#957,#958,#959,#960,#961,#962,#963,#964,#965,#966,
#967,#968,#969,#970,#971,#972,#973,#974,#975,#976,#977,#978,#979,#980,#981,
#982,#983,#984,#985,#986,#987,#988,#989,#990,#991,#992,#993,#994,#995,#996,
#997,#998,#999,#1000,#1001,#1002,#1003,#1004,#1005,#1006,#1007,#1008));
#1010=DERIVED_UNIT_ELEMENT(#1012,1.);
#1011=DERIVED_UNIT_ELEMENT(#1647,-3.);
#1012=(
MASS_UNIT()
NAMED_UNIT(*)
SI_UNIT(.KILO.,.GRAM.)
);
#1013=DERIVED_UNIT((#1010,#1011));
#1014=MEASURE_REPRESENTATION_ITEM('density measure',
POSITIVE_RATIO_MEASURE(7850.),#1013);
#1015=PROPERTY_DEFINITION_REPRESENTATION(#1020,#1017);
#1016=PROPERTY_DEFINITION_REPRESENTATION(#1021,#1018);
#1017=REPRESENTATION('material name',(#1019),#1644);
#1018=REPRESENTATION('density',(#1014),#1644);
#1019=DESCRIPTIVE_REPRESENTATION_ITEM('Steel','Steel');
#1020=PROPERTY_DEFINITION('material property','material name',#1654);
#1021=PROPERTY_DEFINITION('material property','density of part',#1654);
#1022=AXIS2_PLACEMENT_3D('',#1355,#1091,#1092);
#1023=AXIS2_PLACEMENT_3D('',#1356,#1093,#1094);
#1024=AXIS2_PLACEMENT_3D('',#1359,#1095,#1096);
#1025=AXIS2_PLACEMENT_3D('',#1363,#1098,#1099);
#1026=AXIS2_PLACEMENT_3D('',#1365,#1100,#1101);
#1027=AXIS2_PLACEMENT_3D('',#1368,#1103,#1104);
#1028=AXIS2_PLACEMENT_3D('',#1369,#1105,#1106);
#1029=AXIS2_PLACEMENT_3D('',#1373,#1108,#1109);
#1030=AXIS2_PLACEMENT_3D('',#1379,#1113,#1114);
#1031=AXIS2_PLACEMENT_3D('',#1385,#1118,#1119);
#1032=AXIS2_PLACEMENT_3D('',#1389,#1122,#1123);
#1033=AXIS2_PLACEMENT_3D('',#1392,#1124,#1125);
#1034=AXIS2_PLACEMENT_3D('',#1396,#1127,#1128);
#1035=AXIS2_PLACEMENT_3D('',#1398,#1129,#1130);
#1036=AXIS2_PLACEMENT_3D('',#1401,#1132,#1133);
#1037=AXIS2_PLACEMENT_3D('',#1402,#1134,#1135);
#1038=AXIS2_PLACEMENT_3D('',#1406,#1137,#1138);
#1039=AXIS2_PLACEMENT_3D('',#1430,#1151,#1152);
#1040=AXIS2_PLACEMENT_3D('',#1436,#1156,#1157);
#1041=AXIS2_PLACEMENT_3D('',#1440,#1160,#1161);
#1042=AXIS2_PLACEMENT_3D('',#1449,#1166,#1167);
#1043=AXIS2_PLACEMENT_3D('',#1461,#1175,#1176);
#1044=AXIS2_PLACEMENT_3D('',#1467,#1180,#1181);
#1045=AXIS2_PLACEMENT_3D('',#1471,#1184,#1185);
#1046=AXIS2_PLACEMENT_3D('',#1480,#1190,#1191);
#1047=AXIS2_PLACEMENT_3D('',#1486,#1195,#1196);
#1048=AXIS2_PLACEMENT_3D('',#1497,#1203,#1204);
#1049=AXIS2_PLACEMENT_3D('',#1503,#1208,#1209);
#1050=AXIS2_PLACEMENT_3D('',#1509,#1213,#1214);
#1051=AXIS2_PLACEMENT_3D('',#1528,#1225,#1226);
#1052=AXIS2_PLACEMENT_3D('',#1534,#1230,#1231);
#1053=AXIS2_PLACEMENT_3D('',#1538,#1234,#1235);
#1054=AXIS2_PLACEMENT_3D('',#1542,#1238,#1239);
#1055=AXIS2_PLACEMENT_3D('',#1544,#1241,#1242);
#1056=AXIS2_PLACEMENT_3D('',#1548,#1245,#1246);
#1057=AXIS2_PLACEMENT_3D('',#1558,#1252,#1253);
#1058=AXIS2_PLACEMENT_3D('',#1561,#1255,#1256);
#1059=AXIS2_PLACEMENT_3D('',#1562,#1257,#1258);
#1060=AXIS2_PLACEMENT_3D('',#1566,#1261,#1262);
#1061=AXIS2_PLACEMENT_3D('',#1581,#1271,#1272);
#1062=AXIS2_PLACEMENT_3D('',#1582,#1273,#1274);
#1063=AXIS2_PLACEMENT_3D('',#1586,#1277,#1278);
#1064=AXIS2_PLACEMENT_3D('',#1588,#1280,#1281);
#1065=AXIS2_PLACEMENT_3D('',#1589,#1282,#1283);
#1066=AXIS2_PLACEMENT_3D('',#1590,#1284,#1285);
#1067=AXIS2_PLACEMENT_3D('',#1594,#1288,#1289);
#1068=AXIS2_PLACEMENT_3D('',#1595,#1290,#1291);
#1069=AXIS2_PLACEMENT_3D('',#1596,#1292,#1293);
#1070=AXIS2_PLACEMENT_3D('',#1598,#1295,#1296);
#1071=AXIS2_PLACEMENT_3D('',#1601,#1298,#1299);
#1072=AXIS2_PLACEMENT_3D('',#1602,#1300,#1301);
#1073=AXIS2_PLACEMENT_3D('',#1604,#1303,#1304);
#1074=AXIS2_PLACEMENT_3D('',#1605,#1305,#1306);
#1075=AXIS2_PLACEMENT_3D('',#1606,#1307,#1308);
#1076=AXIS2_PLACEMENT_3D('',#1608,#1310,#1311);
#1077=AXIS2_PLACEMENT_3D('',#1610,#1313,#1314);
#1078=AXIS2_PLACEMENT_3D('',#1611,#1315,#1316);
#1079=AXIS2_PLACEMENT_3D('',#1614,#1319,#1320);
#1080=AXIS2_PLACEMENT_3D('',#1622,#1326,#1327);
#1081=AXIS2_PLACEMENT_3D('',#1630,#1333,#1334);
#1082=AXIS2_PLACEMENT_3D('',#1632,#1336,#1337);
#1083=AXIS2_PLACEMENT_3D('',#1634,#1339,#1340);
#1084=AXIS2_PLACEMENT_3D('',#1635,#1341,#1342);
#1085=AXIS2_PLACEMENT_3D('',#1636,#1343,#1344);
#1086=AXIS2_PLACEMENT_3D('',#1637,#1345,#1346);
#1087=AXIS2_PLACEMENT_3D('',#1638,#1347,#1348);
#1088=AXIS2_PLACEMENT_3D('',#1639,#1349,#1350);
#1089=AXIS2_PLACEMENT_3D('',#1640,#1351,#1352);
#1090=AXIS2_PLACEMENT_3D('',#1641,#1353,#1354);
#1091=DIRECTION('axis',(0.,0.,1.));
#1092=DIRECTION('refdir',(1.,0.,0.));
#1093=DIRECTION('center_axis',(0.,0.,1.));
#1094=DIRECTION('ref_axis',(0.382683432365094,0.923879532511285,0.));
#1095=DIRECTION('center_axis',(-0.707106781186547,0.,-0.707106781186548));
#1096=DIRECTION('ref_axis',(0.707106781186548,1.2266347333467E-16,-0.707106781186547));
#1097=DIRECTION('',(0.,0.,-1.));
#1098=DIRECTION('center_axis',(-0.707106781186547,0.,0.707106781186548));
#1099=DIRECTION('ref_axis',(0.707106781186548,-8.177564888978E-17,0.707106781186547));
#1100=DIRECTION('center_axis',(5.07414545075483E-17,0.,1.));
#1101=DIRECTION('ref_axis',(0.382683432365094,0.923879532511285,0.));
#1102=DIRECTION('',(0.,0.,1.));
#1103=DIRECTION('center_axis',(0.,0.,-1.));
#1104=DIRECTION('ref_axis',(0.382683432365094,0.923879532511285,0.));
#1105=DIRECTION('center_axis',(-5.07414545075483E-17,0.,-1.));
#1106=DIRECTION('ref_axis',(1.,1.06752213906265E-17,-5.07414545075483E-17));
#1107=DIRECTION('',(0.,1.,0.));
#1108=DIRECTION('center_axis',(5.07414545075483E-17,0.,1.));
#1109=DIRECTION('ref_axis',(0.707106781186546,-0.707106781186549,-3.5879626569556E-17));
#1110=DIRECTION('',(1.,0.,-5.07414545075483E-17));
#1111=DIRECTION('',(0.,1.,0.));
#1112=DIRECTION('',(-1.,-1.06752213906265E-17,5.07414545075483E-17));
#1113=DIRECTION('center_axis',(0.707106781186547,0.,-0.707106781186548));
#1114=DIRECTION('ref_axis',(-0.707106781186548,0.,-0.707106781186547));
#1115=DIRECTION('',(-0.577350269189626,0.577350269189626,-0.577350269189626));
#1116=DIRECTION('',(0.,-1.,0.));
#1117=DIRECTION('',(0.707106781186547,0.,0.707106781186548));
#1118=DIRECTION('center_axis',(0.707106781186547,0.707106781186548,0.));
#1119=DIRECTION('ref_axis',(0.,0.,-1.));
#1120=DIRECTION('',(0.577350269189626,-0.577350269189626,-0.577350269189625));
#1121=DIRECTION('',(0.,0.,-1.));
#1122=DIRECTION('center_axis',(-3.34924510394815E-33,-7.0810746375244E-49,
-1.));
#1123=DIRECTION('ref_axis',(-0.382683432365095,0.923879532511285,0.));
#1124=DIRECTION('center_axis',(0.707106781186547,0.,0.707106781186548));
#1125=DIRECTION('ref_axis',(-0.707106781186548,4.088782444489E-17,0.707106781186547));
#1126=DIRECTION('',(3.34924510394815E-33,7.0810746375244E-49,1.));
#1127=DIRECTION('center_axis',(0.707106781186548,0.,-0.707106781186548));
#1128=DIRECTION('ref_axis',(-0.707106781186548,4.088782444489E-17,-0.707106781186548));
#1129=DIRECTION('center_axis',(0.,0.,-1.));
#1130=DIRECTION('ref_axis',(-0.382683432365095,0.923879532511285,0.));
#1131=DIRECTION('',(-3.34924510394815E-33,-7.0810746375244E-49,-1.));
#1132=DIRECTION('center_axis',(5.07414545075483E-17,0.,1.));
#1133=DIRECTION('ref_axis',(-0.382683432365095,0.923879532511285,0.));
#1134=DIRECTION('center_axis',(0.,0.,1.));
#1135=DIRECTION('ref_axis',(1.,2.11423004819119E-16,0.));
#1136=DIRECTION('',(0.,1.,0.));
#1137=DIRECTION('center_axis',(0.,0.,-1.));
#1138=DIRECTION('ref_axis',(-0.707106781186546,-0.707106781186549,0.));
#1139=DIRECTION('',(-1.,0.,0.));
#1140=DIRECTION('',(0.,1.,0.));
#1141=DIRECTION('',(1.,2.11423004819119E-16,0.));
#1142=DIRECTION('',(-6.24159114335998E-16,1.,0.));
#1143=DIRECTION('',(1.,2.11423004819119E-16,0.));
#1144=DIRECTION('',(0.707106781186548,0.707106781186547,0.));
#1145=DIRECTION('',(-6.24159114335998E-16,1.,0.));
#1146=DIRECTION('',(-1.,-5.89805981832115E-16,0.));
#1147=DIRECTION('',(0.,-1.,0.));
#1148=DIRECTION('',(1.,5.55111512312579E-16,0.));
#1149=DIRECTION('',(-6.24159114335998E-16,1.,0.));
#1150=DIRECTION('',(1.,2.11423004819119E-16,0.));
#1151=DIRECTION('center_axis',(-0.707106781186548,0.,0.707106781186548));
#1152=DIRECTION('ref_axis',(0.707106781186548,0.,0.707106781186548));
#1153=DIRECTION('',(0.577350269189626,0.577350269189625,0.577350269189626));
#1154=DIRECTION('',(0.,-1.,0.));
#1155=DIRECTION('',(-0.707106781186548,0.,-0.707106781186547));
#1156=DIRECTION('center_axis',(-0.707106781186547,0.707106781186549,2.36827392485758E-33));
#1157=DIRECTION('ref_axis',(3.34924510394815E-33,0.,1.));
#1158=DIRECTION('',(-0.577350269189627,-0.577350269189625,0.577350269189626));
#1159=DIRECTION('',(3.34924510394815E-33,7.0810746375244E-49,1.));
#1160=DIRECTION('center_axis',(0.,0.,-1.));
#1161=DIRECTION('ref_axis',(-1.,0.,0.));
#1162=DIRECTION('',(-1.,-5.55111512312579E-16,0.));
#1163=DIRECTION('',(6.24159114335998E-16,-1.,0.));
#1164=DIRECTION('',(1.,2.11423004819119E-16,0.));
#1165=DIRECTION('',(-6.24159114335998E-16,1.,0.));
#1166=DIRECTION('center_axis',(2.11423004819119E-16,-1.,0.));
#1167=DIRECTION('ref_axis',(1.,2.11423004819119E-16,0.));
#1168=DIRECTION('',(0.,0.,1.));
#1169=DIRECTION('',(-1.,-2.11423004819119E-16,1.46704179928513E-31));
#1170=DIRECTION('',(0.,0.,-1.));
#1171=DIRECTION('',(-1.,-1.06752213906265E-17,5.07414545075483E-17));
#1172=DIRECTION('',(0.,0.,-1.));
#1173=DIRECTION('',(0.,0.,1.));
#1174=DIRECTION('',(1.,2.11423004819119E-16,0.));
#1175=DIRECTION('center_axis',(-0.707106781186547,0.707106781186548,0.));
#1176=DIRECTION('ref_axis',(0.,0.,1.));
#1177=DIRECTION('',(0.,0.,-1.));
#1178=DIRECTION('',(-0.707106781186548,-0.707106781186547,0.));
#1179=DIRECTION('',(0.,0.,1.));
#1180=DIRECTION('center_axis',(-6.24159114335998E-16,1.,0.));
#1181=DIRECTION('ref_axis',(0.,0.,1.));
#1182=DIRECTION('',(-5.92593829042226E-33,5.55111512312578E-16,-1.));
#1183=DIRECTION('',(-1.,-1.42547414618193E-15,0.));
#1184=DIRECTION('center_axis',(0.707106781186547,0.707106781186548,0.));
#1185=DIRECTION('ref_axis',(0.,0.,-1.));
#1186=DIRECTION('',(-0.707106781186548,0.707106781186547,0.));
#1187=DIRECTION('',(0.,0.,1.));
#1188=DIRECTION('',(0.707106781186548,-0.707106781186547,0.));
#1189=DIRECTION('',(0.,0.,-1.));
#1190=DIRECTION('center_axis',(-6.24159114335998E-16,1.,0.));
#1191=DIRECTION('ref_axis',(0.,0.,1.));
#1192=DIRECTION('',(-1.,-5.06000873955843E-16,0.));
#1193=DIRECTION('',(0.,0.,1.));
#1194=DIRECTION('',(1.,2.11423004819119E-16,0.));
#1195=DIRECTION('center_axis',(0.,0.,-1.));
#1196=DIRECTION('ref_axis',(-1.,-1.42547414618193E-15,0.));
#1197=DIRECTION('',(-6.24159114335998E-16,1.,0.));
#1198=DIRECTION('',(-1.,5.33761069531327E-17,0.));
#1199=DIRECTION('',(-6.24159114335998E-16,1.,0.));
#1200=DIRECTION('',(-6.24159114335998E-16,1.,0.));
#1201=DIRECTION('',(-1.,-5.89805981832115E-16,0.));
#1202=DIRECTION('',(-6.24159114335998E-16,1.,0.));
#1203=DIRECTION('center_axis',(0.707106781186547,0.,0.707106781186548));
#1204=DIRECTION('ref_axis',(0.707106781186548,0.,-0.707106781186547));
#1205=DIRECTION('',(0.,-1.,0.));
#1206=DIRECTION('',(0.707106781186548,0.,-0.707106781186547));
#1207=DIRECTION('',(0.,1.,0.));
#1208=DIRECTION('center_axis',(-0.707106781186547,0.,-0.707106781186548));
#1209=DIRECTION('ref_axis',(-0.707106781186548,0.,0.707106781186547));
#1210=DIRECTION('',(0.,-1.,0.));
#1211=DIRECTION('',(-0.707106781186548,0.,0.707106781186547));
#1212=DIRECTION('',(0.,1.,0.));
#1213=DIRECTION('center_axis',(-1.,0.,0.));
#1214=DIRECTION('ref_axis',(0.,0.,1.));
#1215=DIRECTION('',(0.,-1.,-6.93889390390723E-16));
#1216=DIRECTION('',(0.,4.75809867696496E-16,-1.));
#1217=DIRECTION('',(0.,0.707106781186546,0.707106781186549));
#1218=DIRECTION('',(0.,0.,1.));
#1219=DIRECTION('',(0.,-0.707106781186547,0.707106781186548));
#1220=DIRECTION('',(0.,-1.,0.));
#1221=DIRECTION('',(0.,1.,-6.93889390390723E-16));
#1222=DIRECTION('',(0.,0.707106781186545,-0.70710678118655));
#1223=DIRECTION('',(0.,0.,-1.));
#1224=DIRECTION('',(0.,-0.707106781186545,-0.70710678118655));
#1225=DIRECTION('center_axis',(0.,0.70710678118655,-0.707106781186545));
#1226=DIRECTION('ref_axis',(0.,0.707106781186545,0.70710678118655));
#1227=DIRECTION('',(1.,0.,0.));
#1228=DIRECTION('',(1.,0.,0.));
#1229=DIRECTION('',(0.,0.707106781186545,0.70710678118655));
#1230=DIRECTION('center_axis',(0.,1.,0.));
#1231=DIRECTION('ref_axis',(0.,0.,1.));
#1232=DIRECTION('',(1.,0.,0.));
#1233=DIRECTION('',(0.,0.,1.));
#1234=DIRECTION('center_axis',(0.,0.70710678118655,0.707106781186545));
#1235=DIRECTION('ref_axis',(0.,-0.707106781186545,0.70710678118655));
#1236=DIRECTION('',(1.,0.,0.));
#1237=DIRECTION('',(0.,-0.707106781186545,0.70710678118655));
#1238=DIRECTION('center_axis',(0.,6.93889390390723E-16,1.));
#1239=DIRECTION('ref_axis',(0.,-1.,6.93889390390723E-16));
#1240=DIRECTION('',(0.,-1.,6.93889390390723E-16));
#1241=DIRECTION('center_axis',(0.,6.93889390390723E-16,-1.));
#1242=DIRECTION('ref_axis',(0.,1.,6.93889390390723E-16));
#1243=DIRECTION('',(1.,0.,0.));
#1244=DIRECTION('',(0.,1.,6.93889390390723E-16));
#1245=DIRECTION('center_axis',(1.,0.,0.));
#1246=DIRECTION('ref_axis',(0.,0.,-1.));
#1247=DIRECTION('',(0.,0.707106781186547,-0.707106781186548));
#1248=DIRECTION('',(0.,0.,-1.));
#1249=DIRECTION('',(0.,-0.707106781186546,-0.707106781186549));
#1250=DIRECTION('',(0.,-1.,0.));
#1251=DIRECTION('',(0.,-4.75809867696496E-16,1.));
#1252=DIRECTION('center_axis',(-5.07414545075483E-17,0.,-1.));
#1253=DIRECTION('ref_axis',(1.,1.06752213906265E-17,-5.07414545075483E-17));
#1254=DIRECTION('',(1.,0.,-5.07414545075483E-17));
#1255=DIRECTION('center_axis',(5.07414545075483E-17,0.,1.));
#1256=DIRECTION('ref_axis',(-0.707106781186546,-0.707106781186549,3.5879626569556E-17));
#1257=DIRECTION('center_axis',(-3.58796265695561E-17,-0.707106781186548,
-0.707106781186547));
#1258=DIRECTION('ref_axis',(-1.,0.,5.07414545075483E-17));
#1259=DIRECTION('',(-1.,0.,5.07414545075483E-17));
#1260=DIRECTION('',(0.,-0.707106781186548,0.707106781186547));
#1261=DIRECTION('center_axis',(0.,0.,1.));
#1262=DIRECTION('ref_axis',(1.,2.11423004819119E-16,0.));
#1263=DIRECTION('',(-6.24159114335998E-16,1.,0.));
#1264=DIRECTION('',(1.,5.55111512312579E-16,0.));
#1265=DIRECTION('',(0.,1.,0.));
#1266=DIRECTION('',(-1.,-5.89805981832115E-16,0.));
#1267=DIRECTION('',(-6.24159114335998E-16,1.,0.));
#1268=DIRECTION('',(-6.24159114335998E-16,1.,0.));
#1269=DIRECTION('',(1.,2.11423004819119E-16,0.));
#1270=DIRECTION('',(-1.,0.,0.));
#1271=DIRECTION('center_axis',(0.,0.,-1.));
#1272=DIRECTION('ref_axis',(0.707106781186546,-0.707106781186549,0.));
#1273=DIRECTION('center_axis',(0.,-1.,0.));
#1274=DIRECTION('ref_axis',(0.,0.,-1.));
#1275=DIRECTION('',(1.,0.,0.));
#1276=DIRECTION('',(3.34924510394815E-33,0.,1.));
#1277=DIRECTION('center_axis',(0.,-0.707106781186549,0.707106781186546));
#1278=DIRECTION('ref_axis',(1.,0.,0.));
#1279=DIRECTION('',(0.,-0.707106781186546,-0.707106781186549));
#1280=DIRECTION('center_axis',(0.,0.,1.));
#1281=DIRECTION('ref_axis',(-0.707106781186546,-0.707106781186549,1.0251321877016E-17));
#1282=DIRECTION('center_axis',(-5.07414545075483E-17,0.,-1.));
#1283=DIRECTION('ref_axis',(-0.707106781186546,-0.707106781186549,0.));
#1284=DIRECTION('center_axis',(-3.58796265695561E-17,-0.707106781186548,
-0.707106781186547));
#1285=DIRECTION('ref_axis',(-1.,0.,5.07414545075483E-17));
#1286=DIRECTION('',(0.,-0.707106781186547,0.707106781186548));
#1287=DIRECTION('',(-1.,0.,5.07414545075483E-17));
#1288=DIRECTION('center_axis',(0.,0.,1.));
#1289=DIRECTION('ref_axis',(0.707106781186546,-0.707106781186549,-1.0251321877016E-17));
#1290=DIRECTION('center_axis',(-5.07414545075483E-17,0.,-1.));
#1291=DIRECTION('ref_axis',(0.707106781186546,-0.707106781186549,0.));
#1292=DIRECTION('center_axis',(-1.,0.,3.34924510394815E-33));
#1293=DIRECTION('ref_axis',(-3.34924510394815E-33,3.13740107243958E-16,
-1.));
#1294=DIRECTION('',(-3.34924510394815E-33,0.,-1.));
#1295=DIRECTION('center_axis',(0.,0.,-1.));
#1296=DIRECTION('ref_axis',(0.707106781186546,-0.707106781186549,0.));
#1297=DIRECTION('',(0.,-0.707106781186548,-0.707106781186547));
#1298=DIRECTION('center_axis',(0.,0.,1.));
#1299=DIRECTION('ref_axis',(0.707106781186546,-0.707106781186549,0.));
#1300=DIRECTION('center_axis',(0.,-0.707106781186549,0.707106781186546));
#1301=DIRECTION('ref_axis',(1.,0.,0.));
#1302=DIRECTION('',(1.,0.,0.));
#1303=DIRECTION('center_axis',(0.,0.,-1.));
#1304=DIRECTION('ref_axis',(-0.707106781186546,-0.707106781186549,0.));
#1305=DIRECTION('center_axis',(0.,0.,1.));
#1306=DIRECTION('ref_axis',(-0.707106781186546,-0.707106781186549,0.));
#1307=DIRECTION('center_axis',(1.,0.,0.));
#1308=DIRECTION('ref_axis',(0.,0.,1.));
#1309=DIRECTION('',(0.,0.,1.));
#1310=DIRECTION('center_axis',(0.,0.,1.));
#1311=DIRECTION('ref_axis',(0.707106781186546,-0.707106781186549,0.));
#1312=DIRECTION('',(0.,0.,-1.));
#1313=DIRECTION('center_axis',(-3.34924510394815E-33,0.,-1.));
#1314=DIRECTION('ref_axis',(-0.707106781186546,-0.707106781186549,0.));
#1315=DIRECTION('center_axis',(0.,1.,4.75809867696496E-16));
#1316=DIRECTION('ref_axis',(0.,-4.75809867696496E-16,1.));
#1317=DIRECTION('',(2.96981065613773E-31,-4.75809867696496E-16,1.));
#1318=DIRECTION('',(4.35709059785398E-32,4.75809867696496E-16,-1.));
#1319=DIRECTION('center_axis',(5.55111512312579E-16,-1.,0.));
#1320=DIRECTION('ref_axis',(-1.,-5.55111512312579E-16,0.));
#1321=DIRECTION('',(0.,0.,1.));
#1322=DIRECTION('',(0.,0.,-1.));
#1323=DIRECTION('',(1.,5.55111512312579E-16,-5.07414545075483E-17));
#1324=DIRECTION('',(0.,0.,-1.));
#1325=DIRECTION('',(0.,0.,-1.));
#1326=DIRECTION('center_axis',(-5.89805981832115E-16,1.,0.));
#1327=DIRECTION('ref_axis',(1.,5.89805981832115E-16,0.));
#1328=DIRECTION('',(0.,0.,-1.));
#1329=DIRECTION('',(0.,0.,-1.));
#1330=DIRECTION('',(-1.,-5.89805981832115E-16,5.07414545075483E-17));
#1331=DIRECTION('',(0.,0.,-1.));
#1332=DIRECTION('',(0.,0.,1.));
#1333=DIRECTION('center_axis',(-1.,0.,0.));
#1334=DIRECTION('ref_axis',(0.,1.,0.));
#1335=DIRECTION('',(0.,-1.,0.));
#1336=DIRECTION('center_axis',(1.,0.,0.));
#1337=DIRECTION('ref_axis',(0.,-1.,0.));
#1338=DIRECTION('',(0.,1.,0.));
#1339=DIRECTION('center_axis',(-5.07414545075483E-17,0.,-1.));
#1340=DIRECTION('ref_axis',(-1.,0.,5.07414545075483E-17));
#1341=DIRECTION('center_axis',(-1.,-6.24159114335998E-16,0.));
#1342=DIRECTION('ref_axis',(0.,0.,1.));
#1343=DIRECTION('center_axis',(-1.,-6.24159114335998E-16,0.));
#1344=DIRECTION('ref_axis',(0.,0.,1.));
#1345=DIRECTION('center_axis',(1.,6.24159114335998E-16,0.));
#1346=DIRECTION('ref_axis',(0.,0.,-1.));
#1347=DIRECTION('center_axis',(-1.,-6.24159114335998E-16,0.));
#1348=DIRECTION('ref_axis',(0.,0.,1.));
#1349=DIRECTION('center_axis',(0.,-1.,0.));
#1350=DIRECTION('ref_axis',(0.,0.,-1.));
#1351=DIRECTION('center_axis',(1.,6.24159114335998E-16,3.40551971592313E-31));
#1352=DIRECTION('ref_axis',(-5.92593829042226E-33,5.55111512312578E-16,
-1.));
#1353=DIRECTION('center_axis',(1.,6.24159114335998E-16,0.));
#1354=DIRECTION('ref_axis',(0.,0.,-1.));
#1355=CARTESIAN_POINT('',(0.,0.,0.));
#1356=CARTESIAN_POINT('Origin',(33.2314718820501,-4.4,1.20079345703125));
#1357=CARTESIAN_POINT('',(33.480000019474,-3.85389216732533,5.57579345703125));
#1358=CARTESIAN_POINT('',(33.655735950762,-3.97573593128807,5.40005752574318));
#1359=CARTESIAN_POINT('Origin',(33.2314718820501,-4.4,5.82432159445511));
#1360=CARTESIAN_POINT('',(33.655735950762,-3.97573593128807,-1.24847061168068));
#1361=CARTESIAN_POINT('',(33.655735950762,-3.97573593128807,1.20079345703125));
#1362=CARTESIAN_POINT('',(33.480000019474,-3.85389216732533,-1.42420654296875));
#1363=CARTESIAN_POINT('Origin',(33.2314718820501,-4.4,-1.67273468039261));
#1364=CARTESIAN_POINT('',(33.2314718820501,-3.8,-1.42420654296875));
#1365=CARTESIAN_POINT('Origin',(33.2314718820501,-4.4,-1.42420654296875));
#1366=CARTESIAN_POINT('',(33.2314718820501,-3.8,5.57579345703125));
#1367=CARTESIAN_POINT('',(33.2314718820501,-3.8,1.20079345703125));
#1368=CARTESIAN_POINT('Origin',(33.2314718820501,-4.4,5.57579345703125));
#1369=CARTESIAN_POINT('Origin',(23.140000019474,-3.8,-1.42420654296875));
#1370=CARTESIAN_POINT('',(33.480000019474,-6.,-1.42420654296875));
#1371=CARTESIAN_POINT('',(33.480000019474,-3.8,-1.42420654296875));
#1372=CARTESIAN_POINT('',(33.080000019474,-6.4,-1.42420654296875));
#1373=CARTESIAN_POINT('Origin',(33.080000019474,-6.,-1.42420654296875));
#1374=CARTESIAN_POINT('',(29.010000019474,-6.4,-1.42420654296875));
#1375=CARTESIAN_POINT('',(25.875000019474,-6.4,-1.42420654296875));
#1376=CARTESIAN_POINT('',(29.010000019474,-3.8,-1.42420654296875));
#1377=CARTESIAN_POINT('',(29.010000019474,-3.725,-1.42420654296875));
#1378=CARTESIAN_POINT('',(34.080000019474,-3.8,-1.42420654296875));
#1379=CARTESIAN_POINT('Origin',(33.780000019474,-3.8,-1.12420654296875));
#1380=CARTESIAN_POINT('',(34.080000019474,-4.4,-0.824206542968748));
#1381=CARTESIAN_POINT('',(33.9716666861406,-4.29166666666666,-0.93253987630208));
#1382=CARTESIAN_POINT('',(34.080000019474,-6.,-0.824206542968747));
#1383=CARTESIAN_POINT('',(34.080000019474,-3.8,-0.824206542968748));
#1384=CARTESIAN_POINT('',(33.480000019474,-6.,-1.42420654296875));
#1385=CARTESIAN_POINT('Origin',(33.780000019474,-4.1,0.325793457031252));
#1386=CARTESIAN_POINT('',(34.080000019474,-4.4,4.97579345703125));
#1387=CARTESIAN_POINT('',(34.555000019474,-4.875,4.50079345703125));
#1388=CARTESIAN_POINT('',(34.080000019474,-4.4,0.325793457031252));
#1389=CARTESIAN_POINT('Origin',(23.9885281568978,-4.4,2.95079345703125));
#1390=CARTESIAN_POINT('',(23.740000019474,-3.85389216732533,-1.42420654296875));
#1391=CARTESIAN_POINT('',(23.5642640881859,-3.97573593128807,-1.24847061168067));
#1392=CARTESIAN_POINT('Origin',(23.9885281568978,-4.4,-1.67273468039261));
#1393=CARTESIAN_POINT('',(23.5642640881859,-3.97573593128807,5.40005752574318));
#1394=CARTESIAN_POINT('',(23.5642640881859,-3.97573593128807,2.95079345703125));
#1395=CARTESIAN_POINT('',(23.740000019474,-3.85389216732533,5.57579345703125));
#1396=CARTESIAN_POINT('Origin',(23.9885281568978,-4.4,5.82432159445511));
#1397=CARTESIAN_POINT('',(23.9885281568978,-3.8,5.57579345703125));
#1398=CARTESIAN_POINT('Origin',(23.9885281568978,-4.4,5.57579345703125));
#1399=CARTESIAN_POINT('',(23.9885281568978,-3.8,-1.42420654296875));
#1400=CARTESIAN_POINT('',(23.9885281568978,-3.8,2.95079345703125));
#1401=CARTESIAN_POINT('Origin',(23.9885281568978,-4.4,-1.42420654296875));
#1402=CARTESIAN_POINT('Origin',(29.910000019474,-3.8,5.57579345703125));
#1403=CARTESIAN_POINT('',(23.740000019474,-6.,5.57579345703125));
#1404=CARTESIAN_POINT('',(23.740000019474,-3.8,5.57579345703125));
#1405=CARTESIAN_POINT('',(24.140000019474,-6.4,5.57579345703125));
#1406=CARTESIAN_POINT('Origin',(24.140000019474,-6.,5.57579345703125));
#1407=CARTESIAN_POINT('',(28.210000019474,-6.4,5.57579345703125));
#1408=CARTESIAN_POINT('',(29.260000019474,-6.4,5.57579345703125));
#1409=CARTESIAN_POINT('',(28.210000019474,-0.299999999999999,5.57579345703125));
#1410=CARTESIAN_POINT('',(28.210000019474,-3.725,5.57579345703125));
#1411=CARTESIAN_POINT('',(27.310000019474,-0.299999999999999,5.57579345703125));
#1412=CARTESIAN_POINT('',(23.140000019474,-0.3,5.57579345703125));
#1413=CARTESIAN_POINT('',(27.310000019474,3.315,5.57579345703125));
#1414=CARTESIAN_POINT('',(27.310000019474,-3.8,5.57579345703125));
#1415=CARTESIAN_POINT('',(26.440000019474,3.315,5.57579345703125));
#1416=CARTESIAN_POINT('',(23.140000019474,3.315,5.57579345703125));
#1417=CARTESIAN_POINT('',(25.640000019474,2.515,5.57579345703125));
#1418=CARTESIAN_POINT('',(25.328750019474,2.20375,5.57579345703125));
#1419=CARTESIAN_POINT('',(25.640000019474,-0.330000000000002,5.57579345703125));
#1420=CARTESIAN_POINT('',(25.640000019474,-3.8,5.57579345703125));
#1421=CARTESIAN_POINT('',(21.640000019474,-0.330000000000006,5.57579345703125));
#1422=CARTESIAN_POINT('',(35.580000019474,-0.329999999999996,5.57579345703125));
#1423=CARTESIAN_POINT('',(21.640000019474,-2.,5.57579345703125));
#1424=CARTESIAN_POINT('',(21.640000019474,-0.330000000000006,5.57579345703125));
#1425=CARTESIAN_POINT('',(25.640000019474,-2.,5.57579345703125));
#1426=CARTESIAN_POINT('',(21.640000019474,-2.,5.57579345703125));
#1427=CARTESIAN_POINT('',(25.640000019474,-3.8,5.57579345703125));
#1428=CARTESIAN_POINT('',(25.640000019474,-3.8,5.57579345703125));
#1429=CARTESIAN_POINT('',(23.140000019474,-3.8,5.57579345703125));
#1430=CARTESIAN_POINT('Origin',(23.440000019474,-3.8,5.27579345703125));
#1431=CARTESIAN_POINT('',(23.140000019474,-4.4,4.97579345703125));
#1432=CARTESIAN_POINT('',(23.2483333528073,-4.29166666666667,5.08412679036458));
#1433=CARTESIAN_POINT('',(23.140000019474,-6.,4.97579345703125));
#1434=CARTESIAN_POINT('',(23.140000019474,-3.8,4.97579345703125));
#1435=CARTESIAN_POINT('',(23.740000019474,-6.,5.57579345703125));
#1436=CARTESIAN_POINT('Origin',(23.440000019474,-4.1,3.82579345703125));
#1437=CARTESIAN_POINT('',(23.140000019474,-4.4,-0.824206542968748));
#1438=CARTESIAN_POINT('',(22.665000019474,-4.875,-0.349206542968746));
#1439=CARTESIAN_POINT('',(23.140000019474,-4.4,3.82579345703125));
#1440=CARTESIAN_POINT('Origin',(31.580000019474,-3.8,0.975793457031253));
#1441=CARTESIAN_POINT('',(31.580000019474,-1.99999999999999,0.975793457031253));
#1442=CARTESIAN_POINT('',(25.640000019474,-2.,0.975793457031253));
#1443=CARTESIAN_POINT('',(33.580000019474,-1.99999999999999,0.975793457031252));
#1444=CARTESIAN_POINT('',(31.580000019474,-3.8,0.975793457031253));
#1445=CARTESIAN_POINT('',(31.580000019474,-3.8,0.975793457031253));
#1446=CARTESIAN_POINT('',(25.640000019474,-3.8,0.975793457031253));
#1447=CARTESIAN_POINT('',(30.095000019474,-3.8,0.975793457031253));
#1448=CARTESIAN_POINT('',(25.640000019474,-3.8,0.975793457031253));
#1449=CARTESIAN_POINT('Origin',(28.610000019474,-3.8,2.07579345703125));
#1450=CARTESIAN_POINT('',(29.010000019474,-3.8,-0.624206542968748));
#1451=CARTESIAN_POINT('',(29.010000019474,-3.8,2.07579345703125));
#1452=CARTESIAN_POINT('',(28.210000019474,-3.8,-0.624206542968748));
#1453=CARTESIAN_POINT('',(28.610000019474,-3.8,-0.624206542968748));
#1454=CARTESIAN_POINT('',(28.210000019474,-3.8,-1.42420654296875));
#1455=CARTESIAN_POINT('',(28.210000019474,-3.8,2.07579345703125));
#1456=CARTESIAN_POINT('',(34.080000019474,-3.8,-1.42420654296875));
#1457=CARTESIAN_POINT('',(25.640000019474,-3.8,5.57579345703125));
#1458=CARTESIAN_POINT('',(31.580000019474,-3.8,5.57579345703125));
#1459=CARTESIAN_POINT('',(31.580000019474,-3.8,2.52579345703125));
#1460=CARTESIAN_POINT('',(23.140000019474,-3.8,5.57579345703125));
#1461=CARTESIAN_POINT('Origin',(26.040000019474,2.915,3.62579345703125));
#1462=CARTESIAN_POINT('',(26.440000019474,3.315,2.97579345703125));
#1463=CARTESIAN_POINT('',(26.440000019474,3.315,3.62579345703125));
#1464=CARTESIAN_POINT('',(25.640000019474,2.515,2.97579345703125));
#1465=CARTESIAN_POINT('',(24.678750019474,1.55375,2.97579345703125));
#1466=CARTESIAN_POINT('',(25.640000019474,2.515,3.62579345703125));
#1467=CARTESIAN_POINT('Origin',(26.475000019474,3.315,4.27579345703125));
#1468=CARTESIAN_POINT('',(27.310000019474,3.315,2.97579345703125));
#1469=CARTESIAN_POINT('',(27.310000019474,3.315,2.97579345703125));
#1470=CARTESIAN_POINT('',(25.640000019474,3.315,2.97579345703125));
#1471=CARTESIAN_POINT('Origin',(31.180000019474,2.915,4.92579345703125));
#1472=CARTESIAN_POINT('',(31.580000019474,2.515,2.97579345703125));
#1473=CARTESIAN_POINT('',(30.780000019474,3.315,2.97579345703125));
#1474=CARTESIAN_POINT('',(31.891250019474,2.20375,2.97579345703125));
#1475=CARTESIAN_POINT('',(30.780000019474,3.315,5.57579345703125));
#1476=CARTESIAN_POINT('',(30.780000019474,3.315,4.92579345703125));
#1477=CARTESIAN_POINT('',(31.580000019474,2.515,5.57579345703125));
#1478=CARTESIAN_POINT('',(32.541250019474,1.55375,5.57579345703125));
#1479=CARTESIAN_POINT('',(31.580000019474,2.515,4.92579345703125));
#1480=CARTESIAN_POINT('Origin',(30.745000019474,3.315,4.27579345703125));
#1481=CARTESIAN_POINT('',(29.910000019474,3.315,2.97579345703125));
#1482=CARTESIAN_POINT('',(31.580000019474,3.315,2.97579345703125));
#1483=CARTESIAN_POINT('',(29.910000019474,3.315,5.57579345703125));
#1484=CARTESIAN_POINT('',(29.910000019474,3.315,5.57579345703125));
#1485=CARTESIAN_POINT('',(23.140000019474,3.315,5.57579345703125));
#1486=CARTESIAN_POINT('Origin',(27.310000019474,-3.8,2.97579345703125));
#1487=CARTESIAN_POINT('',(27.310000019474,-0.299999999999997,2.97579345703125));
#1488=CARTESIAN_POINT('',(27.310000019474,-3.8,2.97579345703125));
#1489=CARTESIAN_POINT('',(29.910000019474,-0.299999999999997,2.97579345703125));
#1490=CARTESIAN_POINT('',(29.910000019474,-0.299999999999997,2.97579345703125));
#1491=CARTESIAN_POINT('',(29.910000019474,-3.8,2.97579345703125));
#1492=CARTESIAN_POINT('',(31.580000019474,-0.329999999999998,2.97579345703125));
#1493=CARTESIAN_POINT('',(31.580000019474,-3.8,2.97579345703125));
#1494=CARTESIAN_POINT('',(25.640000019474,-0.330000000000001,2.97579345703125));
#1495=CARTESIAN_POINT('',(24.475000019474,-0.330000000000002,2.97579345703125));
#1496=CARTESIAN_POINT('',(25.640000019474,-3.8,2.97579345703125));
#1497=CARTESIAN_POINT('Origin',(33.780000019474,-3.8,5.27579345703125));
#1498=CARTESIAN_POINT('',(33.480000019474,-6.,5.57579345703125));
#1499=CARTESIAN_POINT('',(33.480000019474,-3.8,5.57579345703125));
#1500=CARTESIAN_POINT('',(34.080000019474,-6.,4.97579345703125));
#1501=CARTESIAN_POINT('',(33.480000019474,-6.,5.57579345703125));
#1502=CARTESIAN_POINT('',(34.080000019474,-3.8,4.97579345703125));
#1503=CARTESIAN_POINT('Origin',(23.440000019474,-3.8,-1.12420654296875));
#1504=CARTESIAN_POINT('',(23.740000019474,-6.,-1.42420654296875));
#1505=CARTESIAN_POINT('',(23.740000019474,-3.8,-1.42420654296875));
#1506=CARTESIAN_POINT('',(23.140000019474,-6.,-0.824206542968748));
#1507=CARTESIAN_POINT('',(23.740000019474,-6.,-1.42420654296875));
#1508=CARTESIAN_POINT('',(23.140000019474,-3.8,-0.824206542968748));
#1509=CARTESIAN_POINT('Origin',(28.210000019474,-3.65,2.07579345703125));
#1510=CARTESIAN_POINT('',(28.210000019474,-0.299999999999998,4.77579345703125));
#1511=CARTESIAN_POINT('',(28.210000019474,-6.06862915010153,4.77579345703125));
#1512=CARTESIAN_POINT('',(28.210000019474,-1.1,4.77579345703125));
#1513=CARTESIAN_POINT('',(28.210000019474,-0.299999999999997,3.17579345703125));
#1514=CARTESIAN_POINT('',(28.210000019474,-7.,4.97579345703125));
#1515=CARTESIAN_POINT('',(28.210000019474,-6.7375,5.23829345703125));
#1516=CARTESIAN_POINT('',(28.210000019474,-7.,-0.824206542968748));
#1517=CARTESIAN_POINT('',(28.210000019474,-7.,2.07579345703125));
#1518=CARTESIAN_POINT('',(28.210000019474,-6.4,-1.42420654296875));
#1519=CARTESIAN_POINT('',(28.210000019474,-6.7375,-1.08670654296875));
#1520=CARTESIAN_POINT('',(28.210000019474,-3.725,-1.42420654296875));
#1521=CARTESIAN_POINT('',(28.210000019474,-6.06862915010152,-0.624206542968748));
#1522=CARTESIAN_POINT('',(28.210000019474,-4.6,-0.624206542968748));
#1523=CARTESIAN_POINT('',(28.210000019474,-6.2,-0.492835693070271));
#1524=CARTESIAN_POINT('',(28.210000019474,-6.2,-0.492835693070271));
#1525=CARTESIAN_POINT('',(28.210000019474,-6.2,4.64442260713278));
#1526=CARTESIAN_POINT('',(28.210000019474,-6.2,4.64442260713278));
#1527=CARTESIAN_POINT('',(28.210000019474,-6.06862915010153,4.77579345703125));
#1528=CARTESIAN_POINT('Origin',(28.610000019474,-6.2,4.64442260713278));
#1529=CARTESIAN_POINT('',(29.010000019474,-6.06862915010153,4.77579345703125));
#1530=CARTESIAN_POINT('',(28.610000019474,-6.06862915010153,4.77579345703125));
#1531=CARTESIAN_POINT('',(29.010000019474,-6.2,4.64442260713278));
#1532=CARTESIAN_POINT('',(28.610000019474,-6.2,4.64442260713278));
#1533=CARTESIAN_POINT('',(29.010000019474,-6.06862915010153,4.77579345703125));
#1534=CARTESIAN_POINT('Origin',(28.610000019474,-6.2,-0.492835693070271));
#1535=CARTESIAN_POINT('',(29.010000019474,-6.2,-0.492835693070271));
#1536=CARTESIAN_POINT('',(28.610000019474,-6.2,-0.492835693070271));
#1537=CARTESIAN_POINT('',(29.010000019474,-6.2,4.64442260713278));
#1538=CARTESIAN_POINT('Origin',(28.610000019474,-6.06862915010152,-0.624206542968748));
#1539=CARTESIAN_POINT('',(29.010000019474,-6.06862915010152,-0.624206542968748));
#1540=CARTESIAN_POINT('',(28.610000019474,-6.06862915010152,-0.624206542968748));
#1541=CARTESIAN_POINT('',(29.010000019474,-6.2,-0.492835693070271));
#1542=CARTESIAN_POINT('Origin',(28.610000019474,-3.8,-0.624206542968748));
#1543=CARTESIAN_POINT('',(29.010000019474,-4.6,-0.624206542968748));
#1544=CARTESIAN_POINT('Origin',(28.610000019474,-6.06862915010153,4.77579345703125));
#1545=CARTESIAN_POINT('',(29.010000019474,-0.299999999999998,4.77579345703125));
#1546=CARTESIAN_POINT('',(28.610000019474,-0.299999999999998,4.77579345703126));
#1547=CARTESIAN_POINT('',(29.010000019474,-1.1,4.77579345703125));
#1548=CARTESIAN_POINT('Origin',(29.010000019474,-3.65,2.07579345703125));
#1549=CARTESIAN_POINT('',(29.010000019474,-7.,-0.824206542968748));
#1550=CARTESIAN_POINT('',(29.010000019474,-6.7375,-1.08670654296875));
#1551=CARTESIAN_POINT('',(29.010000019474,-7.,4.97579345703125));
#1552=CARTESIAN_POINT('',(29.010000019474,-7.,2.07579345703125));
#1553=CARTESIAN_POINT('',(29.010000019474,-6.4,5.57579345703125));
#1554=CARTESIAN_POINT('',(29.010000019474,-6.7375,5.23829345703125));
#1555=CARTESIAN_POINT('',(29.010000019474,-0.299999999999999,5.57579345703125));
#1556=CARTESIAN_POINT('',(29.010000019474,-3.725,5.57579345703125));
#1557=CARTESIAN_POINT('',(29.010000019474,-0.299999999999997,3.17579345703125));
#1558=CARTESIAN_POINT('Origin',(23.140000019474,-3.8,-1.42420654296875));
#1559=CARTESIAN_POINT('',(24.140000019474,-6.4,-1.42420654296875));
#1560=CARTESIAN_POINT('',(25.875000019474,-6.4,-1.42420654296875));
#1561=CARTESIAN_POINT('Origin',(24.140000019474,-6.,-1.42420654296875));
#1562=CARTESIAN_POINT('Origin',(25.875000019474,-6.7,-1.12420654296875));
#1563=CARTESIAN_POINT('',(24.140000019474,-7.,-0.824206542968747));
#1564=CARTESIAN_POINT('',(25.875000019474,-7.,-0.824206542968748));
#1565=CARTESIAN_POINT('',(24.140000019474,-6.4,-1.42420654296875));
#1566=CARTESIAN_POINT('Origin',(29.910000019474,-3.8,5.57579345703125));
#1567=CARTESIAN_POINT('',(31.580000019474,-1.99999999999999,5.57579345703125));
#1568=CARTESIAN_POINT('',(31.580000019474,-3.8,5.57579345703125));
#1569=CARTESIAN_POINT('',(35.580000019474,-1.99999999999999,5.57579345703125));
#1570=CARTESIAN_POINT('',(21.640000019474,-2.,5.57579345703125));
#1571=CARTESIAN_POINT('',(35.580000019474,-0.329999999999996,5.57579345703125));
#1572=CARTESIAN_POINT('',(35.580000019474,-1.99999999999999,5.57579345703125));
#1573=CARTESIAN_POINT('',(31.580000019474,-0.329999999999998,5.57579345703125));
#1574=CARTESIAN_POINT('',(35.580000019474,-0.329999999999996,5.57579345703125));
#1575=CARTESIAN_POINT('',(31.580000019474,-3.8,5.57579345703125));
#1576=CARTESIAN_POINT('',(29.910000019474,-0.299999999999999,5.57579345703125));
#1577=CARTESIAN_POINT('',(29.910000019474,-3.8,5.57579345703125));
#1578=CARTESIAN_POINT('',(23.140000019474,-0.3,5.57579345703125));
#1579=CARTESIAN_POINT('',(33.080000019474,-6.4,5.57579345703125));
#1580=CARTESIAN_POINT('',(29.260000019474,-6.4,5.57579345703125));
#1581=CARTESIAN_POINT('Origin',(33.080000019474,-6.,5.57579345703125));
#1582=CARTESIAN_POINT('Origin',(28.610000019474,-7.,2.07579345703125));
#1583=CARTESIAN_POINT('',(24.140000019474,-7.,4.97579345703125));
#1584=CARTESIAN_POINT('',(29.260000019474,-7.,4.97579345703125));
#1585=CARTESIAN_POINT('',(24.140000019474,-7.,3.82579345703125));
#1586=CARTESIAN_POINT('Origin',(29.260000019474,-6.7,5.27579345703125));
#1587=CARTESIAN_POINT('',(24.140000019474,-6.4,5.57579345703125));
#1588=CARTESIAN_POINT('Origin',(24.140000019474,-6.,-1.12420654296875));
#1589=CARTESIAN_POINT('Origin',(24.140000019474,-6.,-0.824206542968747));
#1590=CARTESIAN_POINT('Origin',(25.875000019474,-6.7,-1.12420654296875));
#1591=CARTESIAN_POINT('',(33.080000019474,-7.,-0.824206542968748));
#1592=CARTESIAN_POINT('',(33.080000019474,-6.4,-1.42420654296875));
#1593=CARTESIAN_POINT('',(25.875000019474,-7.,-0.824206542968748));
#1594=CARTESIAN_POINT('Origin',(33.080000019474,-6.,-1.12420654296875));
#1595=CARTESIAN_POINT('Origin',(33.080000019474,-6.,-0.824206542968747));
#1596=CARTESIAN_POINT('Origin',(23.140000019474,-3.8,5.57579345703125));
#1597=CARTESIAN_POINT('',(23.140000019474,-6.,3.82579345703125));
#1598=CARTESIAN_POINT('Origin',(33.080000019474,-6.,5.27579345703125));
#1599=CARTESIAN_POINT('',(33.080000019474,-7.,4.97579345703125));
#1600=CARTESIAN_POINT('',(33.080000019474,-6.4,5.57579345703125));
#1601=CARTESIAN_POINT('Origin',(33.080000019474,-6.,4.97579345703125));
#1602=CARTESIAN_POINT('Origin',(29.260000019474,-6.7,5.27579345703125));
#1603=CARTESIAN_POINT('',(29.260000019474,-7.,4.97579345703125));
#1604=CARTESIAN_POINT('Origin',(24.140000019474,-6.,5.27579345703125));
#1605=CARTESIAN_POINT('Origin',(24.140000019474,-6.,4.97579345703125));
#1606=CARTESIAN_POINT('Origin',(34.080000019474,-3.8,-1.42420654296875));
#1607=CARTESIAN_POINT('',(34.080000019474,-6.,0.325793457031253));
#1608=CARTESIAN_POINT('Origin',(33.080000019474,-6.,0.325793457031253));
#1609=CARTESIAN_POINT('',(33.080000019474,-7.,0.325793457031253));
#1610=CARTESIAN_POINT('Origin',(24.140000019474,-6.,3.82579345703125));
#1611=CARTESIAN_POINT('Origin',(28.610000019474,-0.299999999999998,4.27579345703125));
#1612=CARTESIAN_POINT('',(29.910000019474,-0.299999999999998,3.62579345703125));
#1613=CARTESIAN_POINT('',(27.310000019474,-0.299999999999998,4.92579345703125));
#1614=CARTESIAN_POINT('Origin',(35.580000019474,-1.99999999999999,5.57579345703125));
#1615=CARTESIAN_POINT('',(25.640000019474,-2.,4.27579345703125));
#1616=CARTESIAN_POINT('',(21.640000019474,-2.,-1.42420654296875));
#1617=CARTESIAN_POINT('',(21.640000019474,-2.,5.57579345703125));
#1618=CARTESIAN_POINT('',(35.580000019474,-1.99999999999999,-1.42420654296875));
#1619=CARTESIAN_POINT('',(32.095000019474,-1.99999999999999,-1.42420654296875));
#1620=CARTESIAN_POINT('',(35.580000019474,-1.99999999999999,5.57579345703125));
#1621=CARTESIAN_POINT('',(31.580000019474,-1.99999999999999,4.27579345703125));
#1622=CARTESIAN_POINT('Origin',(21.640000019474,-0.330000000000004,5.57579345703125));
#1623=CARTESIAN_POINT('',(31.580000019474,-0.329999999999998,5.57579345703125));
#1624=CARTESIAN_POINT('',(35.580000019474,-0.329999999999996,-1.42420654296875));
#1625=CARTESIAN_POINT('',(35.580000019474,-0.329999999999996,5.57579345703125));
#1626=CARTESIAN_POINT('',(21.640000019474,-0.330000000000006,-1.42420654296875));
#1627=CARTESIAN_POINT('',(25.125000019474,-0.330000000000002,-1.42420654296875));
#1628=CARTESIAN_POINT('',(21.640000019474,-0.330000000000006,5.57579345703125));
#1629=CARTESIAN_POINT('',(25.640000019474,-0.330000000000001,4.27579345703125));
#1630=CARTESIAN_POINT('Origin',(21.640000019474,-2.,5.57579345703125));
#1631=CARTESIAN_POINT('',(21.640000019474,-1.5825,-1.42420654296875));
#1632=CARTESIAN_POINT('Origin',(35.580000019474,-0.329999999999996,5.57579345703125));
#1633=CARTESIAN_POINT('',(35.5800000194739,-0.747499999999997,-1.42420654296875));
#1634=CARTESIAN_POINT('Origin',(28.610000019474,-1.165,-1.42420654296875));
#1635=CARTESIAN_POINT('Origin',(25.640000019474,-3.8,2.97579345703125));
#1636=CARTESIAN_POINT('Origin',(25.640000019474,-3.8,2.97579345703125));
#1637=CARTESIAN_POINT('Origin',(31.580000019474,-3.8,5.57579345703125));
#1638=CARTESIAN_POINT('Origin',(29.910000019474,-3.8,2.97579345703125));
#1639=CARTESIAN_POINT('Origin',(28.610000019474,-7.,2.07579345703125));
#1640=CARTESIAN_POINT('Origin',(27.310000019474,-3.8,5.57579345703125));
#1641=CARTESIAN_POINT('Origin',(31.580000019474,-3.8,5.57579345703125));
#1642=UNCERTAINTY_MEASURE_WITH_UNIT(LENGTH_MEASURE(0.01),#1646,
'DISTANCE_ACCURACY_VALUE',
'Maximum model space distance between geometric entities at asserted c
onnectivities');
#1643=UNCERTAINTY_MEASURE_WITH_UNIT(LENGTH_MEASURE(0.01),#1646,
'DISTANCE_ACCURACY_VALUE',
'Maximum model space distance between geometric entities at asserted c
onnectivities');
#1644=(
GEOMETRIC_REPRESENTATION_CONTEXT(3)
GLOBAL_UNCERTAINTY_ASSIGNED_CONTEXT((#1642))
GLOBAL_UNIT_ASSIGNED_CONTEXT((#1646,#1648,#1649))
REPRESENTATION_CONTEXT('','3D')
);
#1645=(
GEOMETRIC_REPRESENTATION_CONTEXT(3)
GLOBAL_UNCERTAINTY_ASSIGNED_CONTEXT((#1643))
GLOBAL_UNIT_ASSIGNED_CONTEXT((#1646,#1648,#1649))
REPRESENTATION_CONTEXT('','3D')
);
#1646=(
LENGTH_UNIT()
NAMED_UNIT(*)
SI_UNIT(.MILLI.,.METRE.)
);
#1647=(
LENGTH_UNIT()
NAMED_UNIT(*)
SI_UNIT($,.METRE.)
);
#1648=(
NAMED_UNIT(*)
PLANE_ANGLE_UNIT()
SI_UNIT($,.RADIAN.)
);
#1649=(
NAMED_UNIT(*)
SI_UNIT($,.STERADIAN.)
SOLID_ANGLE_UNIT()
);
#1650=SHAPE_DEFINITION_REPRESENTATION(#1651,#1652);
#1651=PRODUCT_DEFINITION_SHAPE('',$,#1654);
#1652=SHAPE_REPRESENTATION('',(#1022),#1644);
#1653=PRODUCT_DEFINITION_CONTEXT('part definition',#1658,'design');
#1654=PRODUCT_DEFINITION('(Unsaved)','(Unsaved)',#1655,#1653);
#1655=PRODUCT_DEFINITION_FORMATION('',$,#1660);
#1656=PRODUCT_RELATED_PRODUCT_CATEGORY('(Unsaved)','(Unsaved)',(#1660));
#1657=APPLICATION_PROTOCOL_DEFINITION('international standard',
'automotive_design',2009,#1658);
#1658=APPLICATION_CONTEXT(
'Core Data for Automotive Mechanical Design Process');
#1659=PRODUCT_CONTEXT('part definition',#1658,'mechanical');
#1660=PRODUCT('(Unsaved)','(Unsaved)',$,(#1659));
#1661=PRESENTATION_STYLE_ASSIGNMENT((#1662));
#1662=SURFACE_STYLE_USAGE(.BOTH.,#1663);
#1663=SURFACE_SIDE_STYLE('',(#1664));
#1664=SURFACE_STYLE_FILL_AREA(#1665);
#1665=FILL_AREA_STYLE('Steel - Satin',(#1666));
#1666=FILL_AREA_STYLE_COLOUR('Steel - Satin',#1667);
#1667=COLOUR_RGB('Steel - Satin',0.627450980392157,0.627450980392157,0.627450980392157);
ENDSEC;
END-ISO-10303-21;
